<svg width="1102" height="197" viewBox="0 0 1102 197" fill="none" xmlns="http://www.w3.org/2000/svg">
<g clip-path="url(#clip0_38_70)">
<path d="M222.34 54.94C182.32 54.94 151.05 85.32 151.05 125.99C151.05 166.66 181.53 196.78 222.34 196.78C263.15 196.78 294.16 166.14 294.16 125.73C294.16 85.58 263.68 54.94 222.34 54.94ZM222.61 167.47C199.82 167.47 183.12 149.77 183.12 126C183.12 101.96 199.55 84.27 222.34 84.27C245.4 84.27 262.09 102.23 262.09 126C262.09 149.77 245.4 167.47 222.61 167.47ZM302.9 85.85H322.78V194.15H354.58V57.58H302.9V85.85ZM71.02 84.26C87.72 84.26 100.97 94.56 106 109.88H139.66C133.56 77.13 106.53 54.94 71.29 54.94C31.27 54.94 0 85.32 0 126C0 166.68 30.48 196.79 71.29 196.79C105.74 196.79 133.3 174.6 139.4 141.58H106C101.23 156.9 87.98 167.47 71.28 167.47C48.22 167.47 32.06 149.77 32.06 126C32.07 101.96 47.97 84.26 71.02 84.26ZM907.12 112.79L883.8 109.36C872.67 107.78 864.72 104.08 864.72 95.36C864.72 85.85 875.06 81.1 889.1 81.1C904.47 81.1 914.28 87.7 916.4 98.53H947.14C943.69 71.06 922.49 54.95 889.9 54.95C856.24 54.95 833.98 72.12 833.98 96.42C833.98 119.66 848.56 133.14 877.97 137.36L901.29 140.79C912.69 142.37 919.05 146.87 919.05 155.32C919.05 166.15 907.92 170.64 892.55 170.64C873.73 170.64 863.13 162.98 861.54 151.36H830.27C833.19 178.04 854.12 196.79 892.28 196.79C927 196.79 950.05 180.94 950.05 153.73C950.05 129.43 933.36 116.75 907.12 112.79ZM338.68 1.32C327.02 1.32 318.27 9.77 318.27 21.39C318.27 33.01 327.01 41.46 338.68 41.46C350.34 41.46 359.09 33.01 359.09 21.39C359.09 9.77 350.34 1.32 338.68 1.32ZM805.36 104.34C805.36 74.76 787.34 54.95 749.18 54.95C713.14 54.95 693 73.18 689.02 101.18H720.56C722.15 90.35 730.63 81.37 748.65 81.37C764.82 81.37 772.77 88.5 772.77 97.22C772.77 108.58 758.19 111.48 740.17 113.33C715.79 115.97 685.58 124.42 685.58 156.12C685.58 180.69 703.87 196.53 733.02 196.53C755.81 196.53 770.12 187.02 777.28 171.96C778.34 185.43 788.41 194.15 802.46 194.15H821.01V165.89H805.37V104.34H805.36ZM774.09 138.68C774.09 156.91 758.19 170.38 738.84 170.38C726.91 170.38 716.84 165.36 716.84 154.8C716.84 141.33 733.01 137.63 747.85 136.05C762.16 134.73 770.11 131.56 774.09 125.48V138.68ZM605.28 54.94C587.52 54.94 572.68 62.34 562.08 74.75V0H530.28V194.15H561.55V176.19C572.15 189.13 587.26 196.79 605.28 196.79C643.44 196.79 672.33 166.68 672.33 126C672.33 85.32 642.91 54.94 605.28 54.94ZM600.51 167.47C577.72 167.47 561.02 149.77 561.02 126C561.02 102.23 577.98 84.27 600.77 84.27C623.83 84.27 639.99 101.97 639.99 126C639.99 149.77 623.3 167.47 600.51 167.47ZM454.22 54.94C433.55 54.94 420.03 63.39 412.08 75.28V57.58H380.54V194.14H412.34V119.92C412.34 99.05 425.59 84.26 445.2 84.26C463.49 84.26 474.88 97.2 474.88 115.96V194.15H506.68V113.59C506.69 79.24 488.94 54.94 454.22 54.94ZM1101.64 121.51C1101.64 82.42 1073.02 54.95 1034.59 54.95C993.78 54.95 963.83 85.59 963.83 126C963.83 168.53 995.9 196.79 1035.12 196.79C1068.25 196.79 1094.22 177.24 1100.84 149.51H1067.71C1062.94 161.66 1051.28 168.53 1035.64 168.53C1015.23 168.53 999.86 155.85 996.42 133.66H1101.63V121.51H1101.64ZM998.28 110.94C1003.32 91.92 1017.63 82.68 1034.06 82.68C1052.08 82.68 1065.86 92.98 1069.04 110.94H998.28Z" fill="white"/>
</g>
<defs>
<clipPath id="clip0_38_70">
<rect width="1101.64" height="196.79" fill="white"/>
</clipPath>
</defs>
</svg>
