<svg width="64" height="71" viewBox="0 0 64 71" fill="none" xmlns="http://www.w3.org/2000/svg">
<path d="M63.1464 21.6877V48.6965C63.1465 50.1326 62.7685 51.5435 62.0503 52.7872C61.3321 54.0309 60.2991 55.0636 59.0552 55.7814L56.2028 57.4244L49.9132 61.0392L35.6645 69.2545C34.4207 69.973 33.0096 70.3513 31.5732 70.3513C30.1368 70.3513 28.7258 69.973 27.482 69.2545L13.2333 61.0392L6.90089 57.408L4.0781 55.7814C2.83662 55.0619 1.80626 54.0285 1.09045 52.7849C0.374636 51.5414 -0.0014294 50.1313 4.0828e-06 48.6965V21.6877C0.000325562 20.2512 0.378525 18.84 1.09664 17.5958C1.81475 16.3517 2.84751 15.3183 4.09125 14.5995L6.90089 12.986L7.28866 12.7625L17.6531 23.1369C19.2352 24.7182 20.4901 26.5958 21.3464 28.6623C22.2026 30.7288 22.6433 32.9437 22.6433 35.1806C22.6433 37.4174 22.2026 39.6324 21.3464 41.6989C20.4901 43.7654 19.2352 45.6429 17.6531 47.2243C17.5258 47.3491 17.4251 47.4985 17.3573 47.6634C17.2895 47.8283 17.256 48.0053 17.2587 48.1836C17.2615 48.3619 17.3005 48.5378 17.3734 48.7005C17.4463 48.8632 17.5515 49.0094 17.6827 49.1302C17.9463 49.364 18.2899 49.4869 18.642 49.4735C18.994 49.46 19.3273 49.3111 19.5722 49.0579C22.7634 45.8895 27.0779 44.1114 31.5749 44.1114C36.0718 44.1114 40.3863 45.8895 43.5775 49.0579C43.8227 49.3095 44.1551 49.4572 44.5062 49.4706C44.8572 49.4841 45.2 49.3622 45.4637 49.1302C45.5949 49.0094 45.7001 48.8632 45.773 48.7005C45.8459 48.5378 45.8849 48.3619 45.8877 48.1836C45.8905 48.0053 45.8569 47.8283 45.7891 47.6634C45.7213 47.4985 45.6207 47.3491 45.4933 47.2243C43.9117 45.6427 42.657 43.7651 41.8011 41.6986C40.9451 39.6321 40.5045 37.4173 40.5045 35.1806C40.5045 32.9438 40.9451 30.729 41.8011 28.6625C42.657 26.5961 43.9117 24.7185 45.4933 23.1369C45.6367 22.9968 45.7461 22.8257 45.8132 22.6369C45.8803 22.448 45.9033 22.2462 45.8805 22.0471C45.8576 21.8479 45.7896 21.6566 45.6815 21.4878C45.5733 21.319 45.428 21.1772 45.2567 21.0732C44.9955 20.9153 44.6884 20.8507 44.3857 20.8901C44.083 20.9295 43.8027 21.0705 43.5906 21.2901C40.3942 24.4722 36.0659 26.2562 31.5556 26.2507C27.0453 26.2451 22.7214 24.4504 19.5328 21.2605L9.67439 11.4021L13.2891 9.30881L27.482 1.09675C28.7258 0.378269 30.1368 0 31.5732 0C33.0096 0 34.4207 0.378269 35.6645 1.09675L49.877 9.3121L56.2225 12.9761L59.0552 14.6192C60.296 15.3364 61.3269 16.3666 62.0449 17.607C62.7628 18.8474 63.1427 20.2545 63.1464 21.6877Z" fill="#F2F2F2"/>
</svg>
