<svg width="24" height="23" viewBox="0 0 24 23" fill="none" xmlns="http://www.w3.org/2000/svg">
<g clip-path="url(#clip0_59_140)">
<path fill-rule="evenodd" clip-rule="evenodd" d="M16.4261 9.35812C15.0272 8.80662 13.5206 8.51855 11.9991 8.51855C8.80115 8.51855 5.79312 9.77407 3.52923 12.0537C1.27514 14.3234 0.0228204 17.3382 0.00266906 20.5429L0 20.9733L0.373935 21.1859C2.17615 22.2114 4.21424 22.7508 6.27949 22.7508C6.33628 22.7508 6.39353 22.7504 6.45045 22.7496C8.25072 22.7237 10.0318 22.2907 11.6464 21.4918C11.1373 21.207 10.6494 20.8863 10.1856 20.5327C7.3712 21.6414 4.18155 21.5047 1.48219 20.1161C1.74476 14.4924 6.37484 9.98761 11.9991 9.98761C13.5634 9.98761 15.1085 10.3337 16.5039 10.9912C16.5219 10.4468 16.496 9.90107 16.4261 9.35812Z" fill="white"/>
<path fill-rule="evenodd" clip-rule="evenodd" d="M23.9955 20.4431C23.9526 16.4588 22.0125 12.8237 18.7784 10.6094C18.7808 11.1924 18.7418 11.7751 18.6618 12.3543C20.9598 14.2307 22.3608 16.9937 22.5141 20.0208C17.557 22.5751 11.3748 20.7863 8.55878 15.9052C7.79816 14.5867 7.33181 13.1126 7.19476 11.6063C6.71633 11.8672 6.25938 12.1674 5.828 12.5039C6.05547 13.9535 6.54978 15.3612 7.28744 16.6397C8.88934 19.4163 11.4647 21.4069 14.5389 22.2448C15.5819 22.5291 16.6424 22.6697 17.697 22.6697C19.7519 22.6697 21.7848 22.1358 23.6242 21.0896L24 20.8757L23.9955 20.4431Z" fill="white"/>
<path fill-rule="evenodd" clip-rule="evenodd" d="M12.4231 0.217487L12.0523 0L11.6815 0.217153C9.84924 1.28943 8.32701 2.8268 7.27927 4.66292C6.37453 6.24863 5.83938 8.02493 5.71387 9.83808C6.21545 9.53992 6.73799 9.27776 7.27827 9.05373C7.74369 6.0648 9.48185 3.36347 12.0517 1.71272C16.7716 4.74753 18.3237 11.0398 15.4887 15.9538C14.7209 17.2847 13.6711 18.4353 12.4274 19.3187C12.8919 19.602 13.3797 19.8479 13.8866 20.0536C15.0363 19.1214 16.0151 17.9795 16.76 16.6884C20.0701 10.951 18.1245 3.56226 12.4231 0.217487Z" fill="white"/>
<path fill-rule="evenodd" clip-rule="evenodd" d="M12.0449 12.754C11.3687 12.754 10.8186 13.3045 10.8186 13.9811C10.8186 14.6578 11.3687 15.2083 12.0449 15.2083C12.7211 15.2083 13.2713 14.6578 13.2713 13.9811C13.2713 13.3045 12.7211 12.754 12.0449 12.754ZM12.0449 16.6773C10.5592 16.6773 9.35071 15.4679 9.35071 13.9811C9.35071 12.4944 10.5592 11.2849 12.0449 11.2849C13.5306 11.2849 14.7393 12.4944 14.7393 13.9811C14.7393 15.4679 13.5306 16.6773 12.0449 16.6773Z" fill="white"/>
</g>
<defs>
<clipPath id="clip0_59_140">
<rect width="24" height="23" fill="white"/>
</clipPath>
</defs>
</svg>
