<svg width="676" height="130" viewBox="0 0 676 130" fill="none" xmlns="http://www.w3.org/2000/svg">
<path d="M26.1001 42C26.1001 42.2 26.3001 42.4 26.5001 42.6C27.2001 43.7 28.0001 44.9 28.8001 46L30.5001 48.6C36.3001 47.1 41.4001 43.7 44.9001 39C47.5001 35 49.0001 30.5 49.5001 25.8C49.8001 24.3 50.0001 22.9 50.3001 21.6C53.1001 8.80001 62.7001 7.60001 64.8001 7.40001C72.1001 7.40001 76.4001 14.8 77.4001 16.8C78.0001 16.4 78.7001 15.9 79.4001 15.5C80.8001 14.6 82.3001 13.8 83.9001 13.1C82.2001 9.60001 76.0001 0 64.9001 0H64.5001C56.6001 0.4 46.2001 5.9 43.0001 20C42.6001 21.6 42.3001 23.2 42.1001 24.7C41.8001 28.3 40.6001 31.7 38.7001 34.8C35.7001 38.7 31.1001 41.3 26.1001 42Z" fill="white"/>
<path d="M20.5001 52.1C22.8001 54.9 24.4001 58.1 25.3001 61.6C25.9001 66.7 24.5001 71.7 21.4001 75.8L22.1001 76C23.4001 76.3 24.7001 76.6 26.1001 76.8L29.1001 77.3C32.2001 72.2 33.3001 66.2 32.5001 60.3C31.5001 55.7 29.4001 51.5 26.5001 47.8C25.6001 46.6 24.8001 45.4 24.1001 44.2C17.1001 33.2 23.0001 25.5 24.4001 23.9C29.6001 18.7 37.9001 20.9 39.9001 21.6C40.1001 20.8 40.2001 20.1 40.4001 19.3C40.8001 17.6 41.3001 16 41.9001 14.4C38.1001 13.2 26.9001 10.7 19.0001 18.7C13.7001 24.7 10.3001 35.9 18.1001 48C18.7001 49.5 19.6001 50.8 20.5001 52.1Z" fill="white"/>
<path d="M24.6 86.8C28.2 87.2 31.6 88.3 34.7 90.3C38.7 93.5 41.3 98.1 42 103.2L42.6 102.8C43.7 102.1 44.9 101.3 46 100.5C47.2 99.7 47.6 99.3 48.6 98.8C47.1 93 43.7 87.9 39 84.4C35 81.8 30.5 80.1 25.8 79.5C24.3 79.2 22.9 79 21.6 78.7C8.8 75.9 7.6 66.3 7.4 64.2C7.4 56.9 14.8 52.6 16.8 51.6C16.4 51 15.9 50.3 15.5 49.6C14.6 48.2 13.8 46.7 13.1 45.1C9.6 46.9 0 53 0 64.3V64.5C0.4 72.4 5.9 82.8 20 86C21.4 86.3 23.1 86.6 24.6 86.8Z" fill="white"/>
<path d="M52.0001 108.6C54.8001 106.3 58.0001 104.7 61.5001 103.8C66.6001 103.2 71.6001 104.7 75.7001 107.7C75.8001 107.5 75.8001 107.2 75.9001 107C76.2001 105.7 76.5001 104.4 76.7001 102.9C76.9001 102 77.0001 101 77.2001 100C72.1001 96.9 66.1001 95.7 60.2001 96.6C55.6001 97.6 51.4001 99.7 47.7001 102.6C46.5001 103.5 45.3001 104.3 44.1001 105C33.1001 112 25.4001 106.1 23.8001 104.7C18.6001 99.5 20.8001 91.2 21.5001 89.2L19.2001 88.7C17.5001 88.3 15.9001 87.8 14.3001 87.2C13.1001 91 10.6001 102.2 18.6001 110.1C22.7001 113.7 28.0001 115.7 33.5001 115.7C38.6001 115.6 43.6001 114.1 47.9001 111.2C49.4001 110.3 50.7001 109.4 52.0001 108.6Z" fill="white"/>
<path d="M102.9 87.1L102.5 86.5C101.8 85.4 101 84.2 100.2 83.1C99.3001 81.9 99.1001 81.5 98.5001 80.5C92.7001 82 87.6001 85.4 84.1001 90.2C81.6001 94.1 80.0001 98.6 79.5001 103.2C79.2001 104.7 79.0001 106.1 78.7001 107.4C75.9001 120.2 66.3001 121.5 64.2001 121.6C56.9001 121.6 52.6001 114.1 51.6001 112.2L49.6001 113.5C48.2001 114.4 46.7001 115.2 45.1001 115.9C46.9001 119.3 53.0001 129.1 64.1001 129.1H64.5001C72.4001 128.7 82.8001 123.2 86.0001 109.2C86.4001 107.6 86.7001 106 86.9001 104.5C87.3001 101 88.4001 97.5 90.3001 94.5C93.3001 90.5 97.9001 87.9 102.9 87.1Z" fill="white"/>
<path d="M108.4 77C106.1 74.2 104.4 71 103.6 67.5C103.1 62.4 104.5 57.4 107.5 53.3L106.8 53.1C105.5 52.8 104.2 52.5 102.8 52.3L99.8 51.7C96.7 56.8 95.5 62.8 96.4 68.7C97.4 73.3 99.5 77.5 102.4 81.2C103.3 82.4 104.1 83.6 104.8 84.8C111.8 95.8 105.9 103.5 104.5 105.1C99.3 110.3 91 108 89 107.4C88.8 108.2 88.7 108.9 88.5 109.7C88.1 111.4 87.6 113 87 114.6C89.8 115.5 92.7 115.9 95.6 115.9C98.2 116 100.9 115.5 103.3 114.5C105.8 113.5 108 112.1 109.9 110.2C115.2 104.3 118.7 93.1 111 80.9C110.2 79.6 109.3 78.3 108.4 77Z" fill="white"/>
<path d="M109.1 43.2C107.5 42.8 105.9 42.5 104.4 42.3C100.8 42 97.3999 40.8 94.2999 38.9C90.2999 35.7 87.6999 31.1 86.9999 26.1L86.3999 26.5C85.2999 27.2 84.0999 28 82.9999 28.8C82.1999 29.4 81.3999 30 80.3999 30.5C81.8999 36.3 85.2999 41.4 90.0999 44.9C93.9999 47.4 98.4999 49 103.2 49.5C104.7 49.8 106.1 50 107.4 50.3C120.2 53.1 121.5 62.7 121.6 64.8C121.6 72.1 114.2 76.4 112.2 77.4C112.6 78 113.1 78.7 113.5 79.4C114.5 80.8 115.3 82.3 116.1 83.9C119.6 82.1 129.3 75.9 129.2 64.7V64.5C128.6 56.8 123.2 46.4 109.1 43.2Z" fill="white"/>
<path d="M76.9001 20.6C74.1001 22.9 70.9001 24.5 67.4001 25.4C62.3001 26 57.3001 24.6 53.2001 21.5C53.2001 21.7 53.2001 22 53.0001 22.2C52.7001 23.5 52.4001 24.8 52.2001 26.3C52.0001 27.3 51.9001 28.3 51.6001 29.3C56.7001 32.4 62.7001 33.5 68.6001 32.7C73.2001 31.7 77.5001 29.6 81.1001 26.7C82.3001 25.8 83.5001 25 84.7001 24.3C95.7001 17.3 103.4 23.2 105 24.6C110.2 29.8 107.9 38.1 107.3 40.1C108.1 40.3 108.8 40.4 109.6 40.6C111.3 41 112.9 41.5 114.5 42.1C115.7 38.3 118.2 27.1 110.2 19.2C104.2 13.9 93.0001 10.5 80.8001 18.3C79.5001 18.8 78.2001 19.7 76.9001 20.6Z" fill="white"/>
<path fill-rule="evenodd" clip-rule="evenodd" d="M523.2 78.0999L523.3 78.1999V62.5999H516.3V74.3999C514.2 75.9999 511.5 76.8999 508.6 76.8999C501.6 76.8999 495.8 71.2999 495.8 64.3999C495.8 57.4999 501.5 51.8999 508.6 51.8999C512 51.8999 515 53.1999 517.3 55.1999L522.7 49.8999C519 46.4999 514.1 44.3999 508.6 44.3999C497.3 44.3999 488.2 53.2999 488.2 64.2999C488.2 75.2999 497.3 84.1999 508.6 84.1999C514.4 84.1999 519.6 81.7999 523.3 78.0999H523.2Z" fill="white"/>
<path fill-rule="evenodd" clip-rule="evenodd" d="M650 44.6001V77.0001V84.5001H675.7V77.0001H657.3V44.6001H650Z" fill="white"/>
<path fill-rule="evenodd" clip-rule="evenodd" d="M622.4 51.9001L638.2 84.4001H630.6L618.5 59.5001L605.9 84.4001H598.3L614.7 51.9001L618.5 44.6001L622.4 51.9001Z" fill="white"/>
<path d="M476.5 44.6001H469.5V84.4001H476.5V44.6001Z" fill="white"/>
<path d="M542.1 44.6001H535.1V84.4001H542.1V44.6001Z" fill="white"/>
<path fill-rule="evenodd" clip-rule="evenodd" d="M576.4 52.1001H589V44.6001H576.4H568.8H556.2V52.1001H568.8V84.5001H576.4V52.1001Z" fill="white"/>
<path fill-rule="evenodd" clip-rule="evenodd" d="M436.3 44.6001H425V52.1001H436.9C443.8 52.1001 449.4 57.7001 449.4 64.6001C449.4 71.5001 443.8 77.1001 436.9 77.1001H425V84.6001H436.3C446.9 84.6001 455.5 76.0001 455.5 65.4001V63.9001C455.4 53.2001 446.8 44.6001 436.3 44.6001Z" fill="white"/>
<path fill-rule="evenodd" clip-rule="evenodd" d="M293.7 44.6001H310.3C316.7 44.6001 321.9 49.8001 321.9 56.2001C321.9 62.6001 316.7 67.8001 310.3 67.8001H300.7V84.5001H293.7V67.8001V60.1001H310.9C313 60.1001 314.8 58.4001 314.8 56.2001C314.8 54.1001 313.1 52.3001 310.9 52.3001H293.7V44.6001Z" fill="white"/>
<path fill-rule="evenodd" clip-rule="evenodd" d="M335.9 84.4001V44.6001H343.2V84.4001H335.9ZM359.1 61.3001V44.6001H366.4V84.4001H359.1V69.0001H343.3V61.3001H359.1Z" fill="white"/>
<path fill-rule="evenodd" clip-rule="evenodd" d="M253.9 44.6001V77.0001V84.5001H279.7V77.0001H261.3V44.6001H253.9Z" fill="white"/>
<path d="M387.4 44.6001H380.4V84.4001H387.4V44.6001Z" fill="white"/>
<path fill-rule="evenodd" clip-rule="evenodd" d="M180.8 44.6001H169.5V52.1001H181.4C188.3 52.1001 193.9 57.7001 193.9 64.6001C193.9 71.5001 188.3 77.1001 181.4 77.1001H169.5V84.6001H180.8C191.4 84.6001 200 76.0001 200 65.4001V63.9001C200 53.2001 191.4 44.6001 180.8 44.6001Z" fill="white"/>
<path fill-rule="evenodd" clip-rule="evenodd" d="M211.7 44.6001H237.5V52.1001H211.7V44.6001ZM211.7 60.8001H235V68.3001H211.7V60.8001ZM237.5 77.0001H211.7V84.5001H237.5V77.0001Z" fill="white"/>
</svg>
