<svg width="715" height="513" viewBox="0 0 715 513" fill="none" xmlns="http://www.w3.org/2000/svg">
<path d="M707.494 193.557C705.556 192.018 687.465 178.358 649.313 178.358C639.239 178.402 629.186 179.266 619.252 180.942C611.868 130.33 570.024 105.654 568.148 104.547L557.903 98.6389L551.165 108.362C542.727 121.423 536.567 135.821 532.951 150.944C526.12 179.835 530.274 206.971 544.95 230.17C527.228 240.046 498.799 242.477 493.046 242.692H22.367C10.073 242.709 0.0970168 252.644 0.0300168 264.937C-0.518983 306.171 6.46702 347.159 20.644 385.883C36.858 428.404 60.98 459.725 92.363 478.893C127.53 500.43 184.665 512.737 249.43 512.737C278.688 512.829 307.891 510.181 336.656 504.83C376.642 497.488 415.119 483.512 450.495 463.478C479.644 446.598 505.878 425.124 528.183 399.882C565.473 357.669 587.688 310.656 604.209 268.875H610.793C651.621 268.875 676.728 252.537 690.573 238.846C699.774 230.114 706.957 219.477 711.618 207.679L714.541 199.126L707.494 193.557Z" fill="#2563EB"/>
<path d="M65.9948 228.909H129.068C132.11 228.909 134.575 226.443 134.575 223.402V167.22C134.592 164.178 132.14 161.699 129.099 161.682C129.089 161.682 129.078 161.682 129.068 161.682H65.9948C62.9528 161.682 60.4878 164.148 60.4878 167.189V167.22V223.401C60.4878 226.443 62.9528 228.909 65.9948 228.909Z" fill="#2563EB"/>
<path d="M152.913 228.909H215.986C219.028 228.909 221.493 226.443 221.493 223.402V167.22C221.51 164.178 219.058 161.699 216.016 161.682C216.006 161.682 215.995 161.682 215.985 161.682H152.912C149.853 161.682 147.374 164.161 147.374 167.22V223.401C147.392 226.448 149.866 228.909 152.913 228.909Z" fill="#2563EB"/>
<path d="M241.153 228.909H304.226C307.268 228.909 309.733 226.443 309.733 223.402V167.22C309.75 164.178 307.298 161.699 304.256 161.682C304.246 161.682 304.235 161.682 304.225 161.682H241.152C238.11 161.682 235.645 164.148 235.645 167.189V167.22V223.401C235.646 226.443 238.112 228.909 241.153 228.909Z" fill="#2563EB"/>
<path d="M328.348 228.909H391.421C394.468 228.909 396.942 226.449 396.959 223.402V167.22C396.959 164.161 394.48 161.682 391.421 161.682H328.348C325.306 161.682 322.841 164.148 322.841 167.189V167.22V223.401C322.841 226.443 325.307 228.909 328.348 228.909Z" fill="#2563EB"/>
<path d="M152.913 148.083H215.986C219.032 148.066 221.493 145.591 221.493 142.545V86.3639C221.493 83.3219 219.027 80.8569 215.986 80.8569H152.913C149.867 80.8569 147.392 83.3169 147.375 86.3639V142.545C147.392 145.597 149.861 148.066 152.913 148.083Z" fill="#2563EB"/>
<path d="M241.153 148.083H304.226C307.272 148.066 309.733 145.591 309.733 142.545V86.3639C309.733 83.3219 307.267 80.8569 304.226 80.8569H241.153C238.111 80.8569 235.646 83.3229 235.646 86.3639V142.545C235.646 145.591 238.107 148.066 241.153 148.083Z" fill="#2563EB"/>
<path d="M328.348 148.083H391.421C394.473 148.066 396.942 145.597 396.959 142.545V86.3639C396.942 83.3169 394.468 80.8569 391.421 80.8569H328.348C325.306 80.8569 322.841 83.3229 322.841 86.3639V142.545C322.841 145.591 325.302 148.066 328.348 148.083Z" fill="#2563EB"/>
<path d="M328.348 67.227H391.421C394.468 67.227 396.942 64.766 396.959 61.72V5.507C396.942 2.46 394.468 0 391.421 0H328.348C325.306 0 322.841 2.465 322.841 5.507V61.719C322.841 64.761 325.307 67.227 328.348 67.227Z" fill="#2563EB"/>
<path d="M416.312 228.909H479.385C482.432 228.909 484.906 226.449 484.923 223.402V167.22C484.923 164.161 482.444 161.682 479.385 161.682H416.312C413.271 161.682 410.805 164.148 410.805 167.189V167.22V223.401C410.805 226.443 413.271 228.909 416.312 228.909Z" fill="#2563EB"/>
</svg>
