<svg width="33" height="27" viewBox="0 0 33 27" fill="none" xmlns="http://www.w3.org/2000/svg">
<path d="M20.8047 7.26592H21.8047L24.6547 4.41592L24.7947 3.20592C23.1621 1.76488 21.189 0.763836 19.0619 0.297356C16.9348 -0.169124 14.7238 -0.0856401 12.638 0.539922C10.5521 1.16548 8.66013 2.31247 7.14079 3.87254C5.62145 5.4326 4.52489 7.35424 3.95471 9.45592C4.27221 9.32579 4.62393 9.30468 4.95471 9.39592L10.6547 8.45592C10.6547 8.45592 10.9447 7.97592 11.0947 8.00592C12.316 6.66459 14.0039 5.84082 15.8127 5.70325C17.6216 5.56568 19.4146 6.12472 20.8247 7.26592H20.8047Z" fill="#EA4335"/>
<path d="M28.7148 9.45607C28.0597 7.0437 26.7147 4.87501 24.8448 3.21606L20.8448 7.21606C21.6784 7.89723 22.3465 8.7588 22.7986 9.7358C23.2507 10.7128 23.4751 11.7797 23.4548 12.8561V13.5661C23.9223 13.5661 24.3852 13.6581 24.8171 13.8371C25.249 14.016 25.6415 14.2782 25.9721 14.6088C26.3026 14.9393 26.5649 15.3318 26.7438 15.7637C26.9227 16.1956 27.0148 16.6586 27.0148 17.1261C27.0148 17.5936 26.9227 18.0565 26.7438 18.4884C26.5649 18.9203 26.3026 19.3128 25.9721 19.6434C25.6415 19.9739 25.249 20.2362 24.8171 20.4151C24.3852 20.594 23.9223 20.6861 23.4548 20.6861H16.3348L15.6248 21.4061V25.6761L16.3348 26.3861H23.4548C25.443 26.4015 27.3834 25.7767 28.989 24.6038C30.5945 23.431 31.7799 21.7726 32.3699 19.8738C32.9598 17.975 32.9229 15.9368 32.2646 14.0606C31.6064 12.1845 30.3617 10.57 28.7148 9.45607Z" fill="#4285F4"/>
<path d="M9.20475 26.3459H16.3247V20.6459H9.20475C8.69748 20.6458 8.19616 20.5367 7.73475 20.3259L6.73475 20.6359L3.86475 23.4859L3.61475 24.4859C5.22418 25.7012 7.18802 26.3547 9.20475 26.3459Z" fill="#34A853"/>
<path d="M9.20469 7.85602C7.27551 7.86754 5.3981 8.48132 3.83468 9.61162C2.27126 10.7419 1.09991 12.3323 0.484221 14.1606C-0.131464 15.989 -0.160733 17.9639 0.400502 19.8097C0.961737 21.6555 2.08545 23.2799 3.61469 24.456L7.74469 20.326C7.21985 20.0889 6.76038 19.728 6.40569 19.2743C6.051 18.8205 5.81169 18.2875 5.70828 17.7209C5.60488 17.1544 5.64047 16.5712 5.81201 16.0214C5.98354 15.4716 6.2859 14.9717 6.69313 14.5645C7.10036 14.1572 7.60032 13.8549 8.1501 13.6833C8.69987 13.5118 9.28306 13.4762 9.84962 13.5796C10.4162 13.683 10.9492 13.9223 11.4029 14.277C11.8567 14.6317 12.2176 15.0912 12.4547 15.616L16.5847 11.486C15.7178 10.3528 14.6006 9.43542 13.3203 8.80569C12.04 8.17596 10.6314 7.85093 9.20469 7.85602Z" fill="#FBBC05"/>
</svg>
