<svg width="48" height="48" viewBox="0 0 48 48" fill="none" xmlns="http://www.w3.org/2000/svg">
<path d="M8.27747 33.8657V2H12.1362V16.1902H29.1271V2H32.9858V33.8657H29.1271V19.6133H12.1362V33.8657H8.27747Z" fill="white"/>
<path opacity="0.6" d="M14.3145 33.8657V2H18.1732V16.1902H35.1641V2H39.0228V33.8657H35.1641V19.6133H18.1732V33.8657H14.3145Z" fill="white"/>
<path opacity="0.3" d="M20.3516 33.8657V2H24.2103V30.4426H39.0229V33.8657H20.3516Z" fill="white"/>
<path opacity="0.6" d="M9.40087 37.0015V38.1638H10.5718V37.0015H11.4792V40.0261H10.5718V38.9632H9.40087V40.0261H8.4935V37.0015H9.40087ZM13.4322 39.7582C13.3861 39.8273 13.3314 39.882 13.268 39.9224C13.2047 39.9627 13.1413 39.9944 13.0779 40.0174C13.0145 40.0405 12.954 40.0549 12.8964 40.0606C12.8417 40.0664 12.7971 40.0693 12.7625 40.0693C12.5465 40.0693 12.365 40.0145 12.2181 39.9051C12.0741 39.7927 11.9646 39.653 11.8897 39.486C11.8177 39.3189 11.7817 39.1389 11.7817 38.9459C11.7846 38.7529 11.822 38.5728 11.894 38.4058C11.966 38.2387 12.0741 38.1004 12.2181 37.991C12.365 37.8786 12.5465 37.8225 12.7625 37.8225C12.7971 37.8225 12.8431 37.8268 12.9008 37.8354C12.9584 37.8412 13.0189 37.8556 13.0822 37.8786C13.1456 37.9017 13.2075 37.9362 13.268 37.9823C13.3314 38.0255 13.3861 38.086 13.4322 38.1638V37.8657H14.2316V40.0261H13.4322V39.7582ZM12.6804 38.9459C12.6804 39.0841 12.7164 39.1907 12.7884 39.2656C12.8604 39.3376 12.954 39.3722 13.0693 39.3693C13.1067 39.3693 13.147 39.3621 13.1903 39.3477C13.2335 39.3333 13.2723 39.3131 13.3069 39.2872C13.3444 39.2584 13.3746 39.2238 13.3976 39.1835C13.4207 39.1403 13.4322 39.0899 13.4322 39.0323V38.8595C13.4322 38.8018 13.4207 38.7529 13.3976 38.7125C13.3746 38.6693 13.3444 38.6348 13.3069 38.6088C13.2723 38.58 13.2335 38.5584 13.1903 38.544C13.1499 38.5296 13.1096 38.5224 13.0693 38.5224C12.9569 38.5196 12.8633 38.5541 12.7884 38.6261C12.7164 38.6981 12.6804 38.8047 12.6804 38.9459ZM14.5343 40.0261V36.8719H15.3337V38.1638C15.3797 38.086 15.433 38.0255 15.4935 37.9823C15.5569 37.9362 15.6203 37.9017 15.6836 37.8786C15.747 37.8556 15.8075 37.8412 15.8651 37.8354C15.9227 37.8268 15.9688 37.8225 16.0034 37.8225C16.2223 37.8225 16.4038 37.8786 16.5478 37.991C16.6918 38.1004 16.7998 38.2387 16.8719 38.4058C16.9467 38.5728 16.9828 38.7529 16.9799 38.9459C16.9799 39.1389 16.9439 39.3189 16.8719 39.486C16.7998 39.653 16.6904 39.7927 16.5435 39.9051C16.3994 40.0145 16.2194 40.0693 16.0034 40.0693C15.9688 40.0693 15.9227 40.0664 15.8651 40.0606C15.8104 40.0549 15.7513 40.0405 15.688 40.0174C15.6246 39.9944 15.5612 39.9627 15.4978 39.9224C15.4345 39.882 15.3797 39.8273 15.3337 39.7582V40.0261H14.5343ZM16.0855 38.9459C16.0855 38.8047 16.048 38.6981 15.9731 38.6261C15.9011 38.5541 15.8089 38.5196 15.6966 38.5224C15.6592 38.5224 15.6188 38.5296 15.5756 38.544C15.5324 38.5584 15.4921 38.58 15.4546 38.6088C15.4201 38.6348 15.3913 38.6693 15.3682 38.7125C15.3452 38.7529 15.3337 38.8018 15.3337 38.8595V39.0323C15.3337 39.0899 15.3452 39.1403 15.3682 39.1835C15.3913 39.2238 15.4201 39.2584 15.4546 39.2872C15.4921 39.3131 15.5324 39.3333 15.5756 39.3477C15.6188 39.3621 15.6592 39.3693 15.6966 39.3693C15.8118 39.3722 15.9054 39.3376 15.9775 39.2656C16.0495 39.1907 16.0855 39.0841 16.0855 38.9459ZM17.1487 37.2824C17.1487 37.1614 17.1919 37.0635 17.2783 36.9886C17.3647 36.9137 17.4785 36.8762 17.6197 36.8762C17.7608 36.8762 17.8746 36.9137 17.961 36.9886C18.0474 37.0635 18.0906 37.1614 18.0906 37.2824C18.0906 37.4034 18.0474 37.5013 17.961 37.5762C17.8746 37.6511 17.7608 37.6885 17.6197 37.6885C17.4785 37.6885 17.3647 37.6511 17.2783 37.5762C17.1919 37.5013 17.1487 37.4034 17.1487 37.2824ZM17.2221 40.0261V37.8657H18.0215V40.0261H17.2221ZM18.3234 40.0261V36.8719H19.1228V38.1638C19.1689 38.086 19.2222 38.0255 19.2826 37.9823C19.346 37.9362 19.4094 37.9017 19.4728 37.8786C19.5361 37.8556 19.5966 37.8412 19.6542 37.8354C19.7118 37.8268 19.7579 37.8225 19.7925 37.8225C20.0114 37.8225 20.1929 37.8786 20.3369 37.991C20.4809 38.1004 20.589 38.2387 20.661 38.4058C20.7359 38.5728 20.7719 38.7529 20.769 38.9459C20.769 39.1389 20.733 39.3189 20.661 39.486C20.589 39.653 20.4795 39.7927 20.3326 39.9051C20.1886 40.0145 20.0085 40.0693 19.7925 40.0693C19.7579 40.0693 19.7118 40.0664 19.6542 40.0606C19.5995 40.0549 19.5404 40.0405 19.4771 40.0174C19.4137 39.9944 19.3503 39.9627 19.287 39.9224C19.2236 39.882 19.1689 39.8273 19.1228 39.7582V40.0261H18.3234ZM19.8746 38.9459C19.8746 38.8047 19.8371 38.6981 19.7622 38.6261C19.6902 38.5541 19.5981 38.5196 19.4857 38.5224C19.4483 38.5224 19.4079 38.5296 19.3647 38.544C19.3215 38.5584 19.2812 38.58 19.2438 38.6088C19.2092 38.6348 19.1804 38.6693 19.1573 38.7125C19.1343 38.7529 19.1228 38.8018 19.1228 38.8595V39.0323C19.1228 39.0899 19.1343 39.1403 19.1573 39.1835C19.1804 39.2238 19.2092 39.2584 19.2438 39.2872C19.2812 39.3131 19.3215 39.3333 19.3647 39.3477C19.4079 39.3621 19.4483 39.3693 19.4857 39.3693C19.6009 39.3722 19.6946 39.3376 19.7666 39.2656C19.8386 39.1907 19.8746 39.0841 19.8746 38.9459ZM20.9378 37.2824C20.9378 37.1614 20.981 37.0635 21.0674 36.9886C21.1538 36.9137 21.2676 36.8762 21.4088 36.8762C21.5499 36.8762 21.6637 36.9137 21.7501 36.9886C21.8365 37.0635 21.8797 37.1614 21.8797 37.2824C21.8797 37.4034 21.8365 37.5013 21.7501 37.5762C21.6637 37.6511 21.5499 37.6885 21.4088 37.6885C21.2676 37.6885 21.1538 37.6511 21.0674 37.5762C20.981 37.5013 20.9378 37.4034 20.9378 37.2824ZM21.0113 40.0261V37.8657H21.8106V40.0261H21.0113ZM24.2071 37.0015V38.1638H25.378V37.0015H26.2854V40.0261H25.378V38.9632H24.2071V40.0261H23.2997V37.0015H24.2071ZM27.828 40.0693C27.6638 40.0693 27.5082 40.0462 27.3613 40.0001C27.2173 39.9512 27.0891 39.8792 26.9768 39.7841C26.8673 39.689 26.7795 39.5724 26.7132 39.4341C26.647 39.293 26.6138 39.1302 26.6138 38.9459C26.6138 38.7615 26.6455 38.6002 26.7089 38.4619C26.7752 38.3208 26.863 38.2027 26.9725 38.1076C27.0848 38.0126 27.2144 37.942 27.3613 37.8959C27.5082 37.847 27.6638 37.8225 27.828 37.8225C27.9922 37.8225 28.1477 37.847 28.2946 37.8959C28.4415 37.942 28.5697 38.0126 28.6792 38.1076C28.7915 38.2027 28.8794 38.3208 28.9427 38.4619C29.009 38.6002 29.0421 38.7615 29.0421 38.9459C29.0421 39.1302 29.009 39.293 28.9427 39.4341C28.8765 39.5724 28.7872 39.689 28.6749 39.7841C28.5654 39.8792 28.4372 39.9512 28.2903 40.0001C28.1463 40.0462 27.9922 40.0693 27.828 40.0693ZM28.178 38.9459C28.178 38.8249 28.1477 38.7241 28.0872 38.6434C28.0267 38.5628 27.9403 38.5224 27.828 38.5224C27.7156 38.5224 27.6292 38.5628 27.5687 38.6434C27.5082 38.7241 27.478 38.8249 27.478 38.9459C27.478 39.064 27.5068 39.1648 27.5644 39.2483C27.6249 39.329 27.7128 39.3693 27.828 39.3693C27.9432 39.3693 28.0296 39.329 28.0872 39.2483C28.1477 39.1648 28.178 39.064 28.178 38.9459ZM30.7888 39.6242C30.7514 39.7049 30.7039 39.774 30.6462 39.8316C30.5915 39.8892 30.5296 39.9353 30.4604 39.9699C30.3942 40.0045 30.3236 40.0289 30.2487 40.0433C30.1738 40.0606 30.0975 40.0693 30.0197 40.0693C29.7835 40.0693 29.6049 40.0016 29.484 39.8662C29.3659 39.7279 29.3068 39.5378 29.3068 39.2959V37.8657H30.1061V38.9113C30.1061 39.0755 30.1378 39.1922 30.2012 39.2613C30.2646 39.3275 30.3481 39.3607 30.4518 39.3607C30.5526 39.3607 30.6333 39.3275 30.6938 39.2613C30.7571 39.195 30.7888 39.1115 30.7888 39.0107V37.8657H31.5882V40.0261H30.7888V39.6242ZM32.7447 38.4922C32.7447 38.5354 32.7763 38.5685 32.8397 38.5916C32.9031 38.6117 32.9823 38.6319 33.0774 38.6521C33.1724 38.6722 33.2761 38.6953 33.3884 38.7212C33.5008 38.7471 33.6045 38.7846 33.6995 38.8335C33.7946 38.8825 33.8738 38.9487 33.9372 39.0323C34.0006 39.1158 34.0322 39.2238 34.0322 39.3563C34.0322 39.4687 34.0078 39.5695 33.9588 39.6588C33.9098 39.7452 33.8392 39.8201 33.7471 39.8835C33.6549 39.944 33.544 39.9915 33.4144 40.0261C33.2847 40.0577 33.1393 40.0722 32.978 40.0693C32.6611 40.0635 32.4033 39.9929 32.2046 39.8576C32.0087 39.7193 31.8891 39.5249 31.8459 39.2742H32.6539C32.6856 39.3319 32.7374 39.3765 32.8095 39.4082C32.8815 39.4399 32.9477 39.4557 33.0082 39.4557C33.0399 39.4557 33.0673 39.45 33.0903 39.4384C33.1134 39.4269 33.1263 39.4096 33.1292 39.3866C33.135 39.3434 33.1062 39.3117 33.0428 39.2915C32.9823 39.2714 32.9045 39.2526 32.8095 39.2354C32.7144 39.2181 32.6107 39.1979 32.4984 39.1749C32.386 39.1518 32.2809 39.1158 32.183 39.0669C32.0879 39.0179 32.0072 38.9502 31.941 38.8638C31.8776 38.7774 31.8459 38.6636 31.8459 38.5224C31.8459 38.3986 31.8733 38.292 31.928 38.2027C31.9828 38.1134 32.0548 38.0399 32.1441 37.9823C32.2362 37.9247 32.3428 37.883 32.4638 37.857C32.5848 37.8282 32.7115 37.8138 32.844 37.8138C32.9938 37.8138 33.1335 37.8297 33.2631 37.8614C33.3956 37.893 33.5123 37.9406 33.6131 38.0039C33.7139 38.0673 33.7975 38.148 33.8637 38.2459C33.93 38.341 33.9746 38.4533 33.9977 38.5829H33.2415C33.23 38.557 33.2099 38.5325 33.181 38.5095C33.1551 38.4864 33.1249 38.4677 33.0903 38.4533C33.0557 38.436 33.0197 38.4231 32.9823 38.4144C32.9448 38.4058 32.9103 38.4015 32.8786 38.4015C32.8383 38.4015 32.8051 38.4087 32.7792 38.4231C32.7562 38.4375 32.7447 38.4605 32.7447 38.4922ZM36.6449 39.244C36.6103 39.3794 36.5556 39.4989 36.4807 39.6026C36.4087 39.7063 36.3208 39.7927 36.2171 39.8619C36.1134 39.931 35.9967 39.9829 35.8671 40.0174C35.7404 40.052 35.6064 40.0693 35.4653 40.0693C35.3011 40.0693 35.1455 40.0462 34.9986 40.0001C34.8546 39.9512 34.7264 39.8792 34.6141 39.7841C34.5046 39.689 34.4168 39.5724 34.3505 39.4341C34.2843 39.293 34.2511 39.1302 34.2511 38.9459C34.2511 38.7615 34.2828 38.6002 34.3462 38.4619C34.4125 38.3208 34.5003 38.2027 34.6098 38.1076C34.7221 38.0126 34.8517 37.942 34.9986 37.8959C35.1455 37.847 35.3011 37.8225 35.4653 37.8225C35.5949 37.8225 35.7188 37.8383 35.8369 37.87C35.955 37.8988 36.063 37.9434 36.1609 38.0039C36.2617 38.0616 36.3496 38.1336 36.4245 38.22C36.4994 38.3064 36.5584 38.4072 36.6016 38.5224C36.6189 38.5743 36.6319 38.6218 36.6405 38.665C36.6492 38.7053 36.6549 38.7471 36.6578 38.7903C36.6607 38.8306 36.6607 38.8739 36.6578 38.9199C36.6578 38.966 36.6578 39.0208 36.6578 39.0841H35.1326C35.1528 39.1677 35.1902 39.2368 35.2449 39.2915C35.2997 39.3434 35.3731 39.3693 35.4653 39.3693C35.5229 39.3693 35.5762 39.3592 35.6252 39.3391C35.677 39.316 35.7173 39.2843 35.7461 39.244H36.6449ZM35.7677 38.7601C35.7447 38.6881 35.7087 38.6305 35.6597 38.5872C35.6108 38.544 35.5459 38.5224 35.4653 38.5224C35.3846 38.5224 35.3169 38.544 35.2622 38.5872C35.2075 38.6305 35.1686 38.6881 35.1455 38.7601H35.7677ZM11.0082 45.0261H8.4935V42.0015H9.40087V44.2267H11.0082V45.0261ZM12.8541 44.7582C12.8081 44.8273 12.7533 44.882 12.69 44.9224C12.6266 44.9627 12.5632 44.9944 12.4998 45.0174C12.4365 45.0405 12.376 45.0549 12.3184 45.0606C12.2636 45.0664 12.219 45.0693 12.1844 45.0693C11.9684 45.0693 11.7869 45.0145 11.64 44.9051C11.496 44.7927 11.3865 44.653 11.3116 44.486C11.2396 44.3189 11.2036 44.1389 11.2036 43.9459C11.2065 43.7529 11.2439 43.5728 11.3159 43.4058C11.388 43.2387 11.496 43.1004 11.64 42.991C11.7869 42.8786 11.9684 42.8225 12.1844 42.8225C12.219 42.8225 12.2651 42.8268 12.3227 42.8354C12.3803 42.8412 12.4408 42.8556 12.5042 42.8786C12.5675 42.9017 12.6295 42.9362 12.69 42.9823C12.7533 43.0255 12.8081 43.086 12.8541 43.1638V42.8657H13.6535V45.0261H12.8541V44.7582ZM12.1023 43.9459C12.1023 44.0841 12.1383 44.1907 12.2103 44.2656C12.2824 44.3376 12.376 44.3722 12.4912 44.3693C12.5286 44.3693 12.569 44.3621 12.6122 44.3477C12.6554 44.3333 12.6943 44.3131 12.7288 44.2872C12.7663 44.2584 12.7965 44.2238 12.8196 44.1835C12.8426 44.1403 12.8541 44.0899 12.8541 44.0323V43.8595C12.8541 43.8018 12.8426 43.7529 12.8196 43.7125C12.7965 43.6693 12.7663 43.6348 12.7288 43.6088C12.6943 43.58 12.6554 43.5584 12.6122 43.544C12.5719 43.5296 12.5315 43.5224 12.4912 43.5224C12.3789 43.5196 12.2852 43.5541 12.2103 43.6261C12.1383 43.6981 12.1023 43.8047 12.1023 43.9459ZM13.9562 45.0261V41.8719H14.7556V43.1638C14.8017 43.086 14.855 43.0255 14.9155 42.9823C14.9788 42.9362 15.0422 42.9017 15.1056 42.8786C15.1689 42.8556 15.2294 42.8412 15.287 42.8354C15.3447 42.8268 15.3907 42.8225 15.4253 42.8225C15.6442 42.8225 15.8257 42.8786 15.9697 42.991C16.1137 43.1004 16.2218 43.2387 16.2938 43.4058C16.3687 43.5728 16.4047 43.7529 16.4018 43.9459C16.4018 44.1389 16.3658 44.3189 16.2938 44.486C16.2218 44.653 16.1123 44.7927 15.9654 44.9051C15.8214 45.0145 15.6413 45.0693 15.4253 45.0693C15.3907 45.0693 15.3447 45.0664 15.287 45.0606C15.2323 45.0549 15.1733 45.0405 15.1099 45.0174C15.0465 44.9944 14.9831 44.9627 14.9198 44.9224C14.8564 44.882 14.8017 44.8273 14.7556 44.7582V45.0261H13.9562ZM15.5074 43.9459C15.5074 43.8047 15.47 43.6981 15.3951 43.6261C15.323 43.5541 15.2309 43.5196 15.1185 43.5224C15.0811 43.5224 15.0408 43.5296 14.9975 43.544C14.9543 43.5584 14.914 43.58 14.8766 43.6088C14.842 43.6348 14.8132 43.6693 14.7902 43.7125C14.7671 43.7529 14.7556 43.8018 14.7556 43.8595V44.0323C14.7556 44.0899 14.7671 44.1403 14.7902 44.1835C14.8132 44.2238 14.842 44.2584 14.8766 44.2872C14.914 44.3131 14.9543 44.3333 14.9975 44.3477C15.0408 44.3621 15.0811 44.3693 15.1185 44.3693C15.2338 44.3722 15.3274 44.3376 15.3994 44.2656C15.4714 44.1907 15.5074 44.0841 15.5074 43.9459ZM17.4996 43.4922C17.4996 43.5354 17.5313 43.5685 17.5946 43.5916C17.658 43.6117 17.7372 43.6319 17.8323 43.6521C17.9273 43.6722 18.031 43.6953 18.1434 43.7212C18.2557 43.7471 18.3594 43.7846 18.4545 43.8335C18.5495 43.8825 18.6287 43.9487 18.6921 44.0323C18.7555 44.1158 18.7872 44.2238 18.7872 44.3563C18.7872 44.4687 18.7627 44.5695 18.7137 44.6588C18.6648 44.7452 18.5942 44.8201 18.502 44.8835C18.4098 44.944 18.2989 44.9915 18.1693 45.0261C18.0397 45.0577 17.8942 45.0722 17.7329 45.0693C17.416 45.0635 17.1582 44.9929 16.9595 44.8576C16.7636 44.7193 16.6441 44.5249 16.6009 44.2742H17.4088C17.4405 44.3319 17.4924 44.3765 17.5644 44.4082C17.6364 44.4399 17.7027 44.4557 17.7631 44.4557C17.7948 44.4557 17.8222 44.45 17.8452 44.4384C17.8683 44.4269 17.8813 44.4096 17.8841 44.3866C17.8899 44.3434 17.8611 44.3117 17.7977 44.2915C17.7372 44.2714 17.6595 44.2526 17.5644 44.2354C17.4693 44.2181 17.3656 44.1979 17.2533 44.1749C17.141 44.1518 17.0358 44.1158 16.9379 44.0669C16.8428 44.0179 16.7622 43.9502 16.6959 43.8638C16.6325 43.7774 16.6009 43.6636 16.6009 43.5224C16.6009 43.3986 16.6282 43.292 16.683 43.2027C16.7377 43.1134 16.8097 43.0399 16.899 42.9823C16.9912 42.9247 17.0977 42.883 17.2187 42.857C17.3397 42.8282 17.4665 42.8138 17.599 42.8138C17.7487 42.8138 17.8885 42.8297 18.0181 42.8614C18.1506 42.893 18.2672 42.9406 18.3681 43.0039C18.4689 43.0673 18.5524 43.148 18.6187 43.2459C18.6849 43.341 18.7296 43.4533 18.7526 43.5829H17.9965C17.9849 43.557 17.9648 43.5325 17.936 43.5095C17.9101 43.4864 17.8798 43.4677 17.8452 43.4533C17.8107 43.436 17.7747 43.4231 17.7372 43.4144C17.6998 43.4058 17.6652 43.4015 17.6335 43.4015C17.5932 43.4015 17.5601 43.4087 17.5341 43.4231C17.5111 43.4375 17.4996 43.4605 17.4996 43.4922ZM20.2322 45.0261V42.0015H21.1395V45.0261H20.2322ZM22.3043 43.2675C22.3417 43.184 22.3878 43.1148 22.4425 43.0601C22.5002 43.0025 22.5621 42.9564 22.6283 42.9218C22.6975 42.8873 22.7695 42.8628 22.8444 42.8484C22.9193 42.8311 22.9956 42.8225 23.0734 42.8225C23.3096 42.8225 23.4867 42.8916 23.6048 43.0299C23.7258 43.1652 23.7863 43.3539 23.7863 43.5959V45.0261H22.987V43.9804C22.987 43.8162 22.9553 43.701 22.8919 43.6348C22.8285 43.5656 22.745 43.5311 22.6413 43.5311C22.5405 43.5311 22.4584 43.5642 22.395 43.6305C22.3345 43.6967 22.3043 43.7802 22.3043 43.8811V45.0261H21.5049V42.8657H22.3043V43.2675ZM26.4551 44.1749C26.4291 44.3218 26.3787 44.4514 26.3038 44.5637C26.2318 44.6732 26.1425 44.7668 26.0359 44.8446C25.9322 44.9195 25.8141 44.9757 25.6816 45.0131C25.5491 45.0505 25.4094 45.0693 25.2625 45.0693C25.0983 45.0693 24.9428 45.0462 24.7959 45.0001C24.6519 44.9512 24.5237 44.8792 24.4113 44.7841C24.3019 44.689 24.214 44.5724 24.1478 44.4341C24.0815 44.293 24.0484 44.1302 24.0484 43.9459C24.0484 43.7615 24.0801 43.6002 24.1434 43.4619C24.2097 43.3208 24.2976 43.2027 24.407 43.1076C24.5194 43.0126 24.649 42.942 24.7959 42.8959C24.9428 42.847 25.0983 42.8225 25.2625 42.8225C25.4065 42.8225 25.5448 42.8412 25.6773 42.8786C25.8127 42.9161 25.9337 42.9723 26.0403 43.0471C26.1468 43.122 26.2361 43.2157 26.3082 43.328C26.383 43.4375 26.4335 43.5656 26.4594 43.7125H25.565C25.5362 43.6549 25.4958 43.6088 25.444 43.5743C25.395 43.5397 25.3345 43.5224 25.2625 43.5224C25.1502 43.5224 25.0638 43.5628 25.0033 43.6434C24.9428 43.7241 24.9125 43.8249 24.9125 43.9459C24.9125 44.064 24.9413 44.1648 24.999 44.2483C25.0594 44.329 25.1473 44.3693 25.2625 44.3693C25.3374 44.3693 25.3993 44.352 25.4483 44.3175C25.5002 44.28 25.5391 44.2325 25.565 44.1749H26.4551ZM26.6085 44.6199C26.6085 44.5594 26.62 44.5032 26.6431 44.4514C26.6661 44.3967 26.6978 44.3491 26.7381 44.3088C26.7785 44.2656 26.8274 44.2325 26.885 44.2094C26.9455 44.1835 27.0103 44.1705 27.0795 44.1705C27.1486 44.1705 27.212 44.1835 27.2696 44.2094C27.3301 44.2325 27.3805 44.2656 27.4208 44.3088C27.4611 44.3491 27.4928 44.3967 27.5159 44.4514C27.5389 44.5032 27.5504 44.5594 27.5504 44.6199C27.5504 44.6804 27.5389 44.738 27.5159 44.7927C27.4928 44.8446 27.4611 44.8921 27.4208 44.9353C27.3805 44.9757 27.3301 45.0073 27.2696 45.0304C27.212 45.0563 27.1486 45.0693 27.0795 45.0693C27.0103 45.0693 26.9455 45.0563 26.885 45.0304C26.8274 45.0073 26.7785 44.9757 26.7381 44.9353C26.6978 44.8921 26.6661 44.8446 26.6431 44.7927C26.62 44.738 26.6085 44.6804 26.6085 44.6199Z" fill="white"/>
</svg>
