<svg width="28" height="9" viewBox="0 0 28 9" fill="none" xmlns="http://www.w3.org/2000/svg">
<path d="M24.6503 1.96812V8.80812C25.8743 8.65212 27.0383 7.32012 27.7823 5.20812V9.00012H20.9303C21.5063 8.83212 21.7703 8.42412 21.7703 7.71612V1.95612C21.7703 1.24812 21.5063 0.840119 20.9303 0.672119H25.8503C24.9503 1.00812 24.6503 1.32012 24.6503 1.96812Z" fill="url(#paint0_linear_5277_10907)"/>
<path d="M15.2851 9.00012H10.7251C11.3011 8.83212 11.5651 8.42412 11.5651 7.71612V1.95612C11.5651 1.24812 11.3011 0.840119 10.7251 0.672119H15.2851C14.7091 0.840119 14.4451 1.24812 14.4451 1.95612V4.36812H16.2451V1.95612C16.2451 1.24812 15.9811 0.840119 15.4051 0.672119H19.9651C19.3891 0.840119 19.1251 1.24812 19.1251 1.95612V7.71612C19.1251 8.42412 19.3891 8.83212 19.9651 9.00012H15.4051C15.9811 8.83212 16.2451 8.42412 16.2451 7.71612V4.96812H14.4451V7.71612C14.4451 8.42412 14.7091 8.83212 15.2851 9.00012Z" fill="url(#paint1_linear_5277_10907)"/>
<path d="M5.08002 9.00012H0.52002C1.09602 8.83212 1.36002 8.42412 1.36002 7.71612V1.95612C1.36002 1.24812 1.09602 0.840119 0.52002 0.672119H5.08002C4.50402 0.840119 4.24002 1.24812 4.24002 1.95612V4.36812H6.04002V1.95612C6.04002 1.24812 5.77602 0.840119 5.20002 0.672119H9.76002C9.18402 0.840119 8.92002 1.24812 8.92002 1.95612V7.71612C8.92002 8.42412 9.18402 8.83212 9.76002 9.00012H5.20002C5.77602 8.83212 6.04002 8.42412 6.04002 7.71612V4.96812H4.24002V7.71612C4.24002 8.42412 4.50402 8.83212 5.08002 9.00012Z" fill="url(#paint2_linear_5277_10907)"/>
<defs>
<linearGradient id="paint0_linear_5277_10907" x1="24.3563" y1="0.672119" x2="24.3563" y2="9.00012" gradientUnits="userSpaceOnUse">
<stop stop-color="#6AFF82"/>
<stop offset="1" stop-color="#D3FFDA"/>
</linearGradient>
<linearGradient id="paint1_linear_5277_10907" x1="15.3451" y1="0.672119" x2="15.3451" y2="9.00012" gradientUnits="userSpaceOnUse">
<stop stop-color="#6AFF82"/>
<stop offset="1" stop-color="#D3FFDA"/>
</linearGradient>
<linearGradient id="paint2_linear_5277_10907" x1="5.14002" y1="0.672119" x2="5.14002" y2="9.00012" gradientUnits="userSpaceOnUse">
<stop stop-color="#6AFF82"/>
<stop offset="1" stop-color="#D3FFDA"/>
</linearGradient>
</defs>
</svg>
