<svg width="747" height="224" viewBox="0 0 747 224" fill="none" xmlns="http://www.w3.org/2000/svg">
<path d="M219.016 0H4.97699C3.65699 0 2.39099 0.524008 1.45799 1.45801C0.523993 2.39101 0 3.657 0 4.978V219.017C0 220.337 0.523993 221.603 1.45799 222.536C2.39099 223.47 3.65699 223.994 4.97699 223.994H219.016C220.337 223.994 221.603 223.47 222.536 222.536C223.47 221.603 223.994 220.337 223.994 219.017V4.978C223.994 3.657 223.47 2.39101 222.536 1.45801C221.603 0.524008 220.337 0 219.016 0ZM149.329 144.352C149.329 145.672 148.805 146.938 147.871 147.872C146.938 148.805 145.672 149.33 144.352 149.33H79.642C78.322 149.33 77.056 148.805 76.122 147.872C75.189 146.938 74.665 145.672 74.665 144.352V79.642C74.665 78.322 75.189 77.056 76.122 76.123C77.056 75.189 78.322 74.665 79.642 74.665H144.352C145.672 74.665 146.938 75.189 147.871 76.123C148.805 77.056 149.329 78.322 149.329 79.642V144.352Z" fill="white"/>
<path d="M667.129 74.6729H602.42C599.671 74.6729 597.442 76.9008 597.442 79.6498V144.36C597.442 147.109 599.671 149.338 602.42 149.338H667.129C669.878 149.338 672.107 147.109 672.107 144.36V79.6498C672.107 76.9008 669.878 74.6729 667.129 74.6729Z" fill="white"/>
<path d="M592.434 0.00585938H527.725C524.976 0.00585938 522.747 2.23386 522.747 4.98386V69.6928C522.747 72.4418 524.976 74.6708 527.725 74.6708H592.434C595.184 74.6708 597.412 72.4418 597.412 69.6928V4.98386C597.412 2.23386 595.184 0.00585938 592.434 0.00585938Z" fill="white"/>
<path d="M741.764 0.00585938H677.054C674.305 0.00585938 672.076 2.23386 672.076 4.98386V69.6928C672.076 72.4418 674.305 74.6708 677.054 74.6708H741.764C744.513 74.6708 746.741 72.4418 746.741 69.6928V4.98386C746.741 2.23386 744.513 0.00585938 741.764 0.00585938Z" fill="white"/>
<path d="M592.434 149.334H527.725C524.976 149.334 522.747 151.562 522.747 154.311V219.021C522.747 221.77 524.976 223.999 527.725 223.999H592.434C595.184 223.999 597.412 221.77 597.412 219.021V154.311C597.412 151.562 595.184 149.334 592.434 149.334Z" fill="white"/>
<path d="M741.764 149.334H677.054C674.305 149.334 672.076 151.562 672.076 154.311V219.021C672.076 221.77 674.305 223.999 677.054 223.999H741.764C744.513 223.999 746.741 221.77 746.741 219.021V154.311C746.741 151.562 744.513 149.334 741.764 149.334Z" fill="white"/>
<path d="M480.343 0.00585938H415.634C412.885 0.00585938 410.656 2.23386 410.656 4.98386V69.6928C410.656 72.4418 412.885 74.6708 415.634 74.6708H480.343C483.092 74.6708 485.321 72.4418 485.321 69.6928V4.98386C485.321 2.23386 483.092 0.00585938 480.343 0.00585938Z" fill="white"/>
<path d="M480.343 149.334H415.634C412.885 149.334 410.656 151.562 410.656 154.311V219.021C410.656 221.77 412.885 223.999 415.634 223.999H480.343C483.092 223.999 485.321 221.77 485.321 219.021V154.311C485.321 151.562 483.092 149.334 480.343 149.334Z" fill="white"/>
<path d="M410.656 79.586C410.656 78.266 410.131 77 409.198 76.067C408.264 75.133 406.998 74.609 405.678 74.609H335.991V4.978C335.991 3.657 335.466 2.39101 334.533 1.45801C333.599 0.524008 332.333 0 331.013 0H266.304C264.983 0 263.717 0.524008 262.784 1.45801C261.85 2.39101 261.326 3.657 261.326 4.978V218.905C261.326 220.225 261.85 221.491 262.784 222.424C263.717 223.358 264.983 223.882 266.304 223.882H331.013C332.333 223.882 333.599 223.358 334.533 222.424C335.466 221.491 335.991 220.225 335.991 218.905V149.274H405.678C406.998 149.274 408.264 148.749 409.198 147.816C410.131 146.882 410.656 145.616 410.656 144.296V79.586Z" fill="white"/>
</svg>
