<svg width="601" height="190" viewBox="0 0 601 190" fill="none" xmlns="http://www.w3.org/2000/svg">
<path d="M23.8 64.2514C26.8 64.2514 29.9 64.2514 32.9 64.2514C32.9 66.0514 32.9 67.2514 32.9 68.5514C21.9 68.5514 11 68.5514 0 68.5514C0 67.3514 0 65.5514 0 64.2514C3 64.2514 6.1 64.2514 9.1 64.2514C9.1 63.0514 9.1 62.4514 9.1 61.8514C9.1 43.5514 9.1 25.9514 9.1 7.65137C9.1 5.85137 8.5 5.25136 6.7 5.25136C4.3 5.25136 2.4 5.25136 0 5.25136C0 3.45136 0 2.25137 0 0.35137C0.6 0.35137 1.2 0.35137 1.8 0.35137C12.8 0.35137 23.7 0.35137 35.3 0.35137C39.6 0.35137 43.8 0.951373 47.5 2.15137C55.4 5.15137 60.3 12.4514 59.7 21.0514C59.1 29.5514 53.6 35.6514 45.1 37.4514C39 38.6514 32.9 38.6514 27.5 38.6514C24.5 38.6514 23.2 39.2514 23.2 41.6514C23.2 48.3514 23.2 54.4514 23.2 61.1514C23.8 61.8514 23.8 63.0514 23.8 64.2514ZM23.2 4.65137C23.2 14.9514 23.2 24.7514 23.2 33.8514C27.5 33.8514 31.7 34.4514 36 33.8514C41.5 33.2514 43.3 30.8514 43.9 25.3514C43.9 21.0514 43.9 17.4514 43.9 13.1514C43.3 8.85137 40.9 6.45137 36.6 5.85137C32.3 5.25137 28.1 5.25137 23.2 4.65137ZM134 123.851C135.2 122.651 137 120.851 139.5 118.951C140.1 118.351 141.3 117.751 141.9 118.351C142.5 118.351 143.1 120.151 143.1 120.751C143.1 128.051 143.1 135.351 143.1 142.651C143.1 143.851 143.1 145.051 140.7 145.051C138.9 145.051 137.7 145.051 137 142.651C136.4 139.651 135.8 135.951 134 132.951C131 126.251 126.1 121.951 118.2 122.651C110.3 122.651 103.6 125.651 99.3 133.651C98.1 135.451 97.5 137.951 96.9 140.351C95.7 150.051 95.1 159.851 97.5 169.551C99.9 179.851 109.1 185.951 120 184.751C129.1 183.551 136.4 176.251 137 165.851C137 164.051 138.2 163.451 140 163.451C141.8 163.451 141.8 164.651 141.8 166.451C141.2 176.751 133.3 185.951 122.9 188.951C111.9 191.351 94.9 188.351 86.4 174.351C80.9 165.251 79.7 155.451 82.1 145.151C86.4 123.251 108.3 115.951 122.3 119.551C126.7 120.151 130.3 122.051 134 123.851ZM371.9 2.15137C371.9 3.35137 371.9 4.55136 371.9 6.45136C369.5 6.45136 367.6 6.45136 365.2 6.45136C363.4 6.45136 362.8 7.05137 362.8 8.85137C362.8 15.5514 362.8 22.8514 362.8 29.5514C362.8 30.7514 362.8 31.9514 364.6 31.9514C371.9 31.9514 379.2 31.9514 386.5 31.9514C386.5 23.4514 386.5 15.5514 386.5 6.35137C383.5 6.35137 380.4 6.35137 377.4 6.35137C377.4 4.55137 377.4 3.35137 377.4 2.05137C387.7 2.05137 398.7 2.05137 409 2.05137C409 3.25137 409 4.45137 409 6.35137C406.6 6.35137 404.7 6.35137 402.3 6.35137C400.5 6.35137 399.9 6.95136 399.9 8.75136C399.9 26.3514 399.9 44.6514 399.9 62.3514C399.9 64.1514 400.5 64.7514 402.3 64.1514C404.1 64.1514 406 64.1514 407.2 64.1514C409 64.1514 409 65.3514 409 66.5514C409 68.3514 408.4 68.3514 407.2 68.3514C397.5 68.3514 387.7 68.3514 378 68.3514H377.4C376.2 64.0514 376.8 64.0514 380.4 64.0514C381.6 64.0514 383.4 64.0514 384.7 64.0514H385.3C385.3 63.4514 385.3 62.8514 385.3 62.2514C385.3 54.3514 385.3 47.0514 385.3 39.1514C385.3 37.3514 384.7 36.1514 382.3 36.7514C376.2 36.7514 370.1 36.7514 363.4 36.7514C361.6 36.7514 361 37.3514 361 39.1514C361 47.0514 361 54.3514 361 62.2514C361 64.0514 361.6 64.6514 363.4 64.6514C364.6 64.6514 365.8 64.6514 366.4 64.6514C370.1 64.6514 370.1 64.6514 370.1 68.9514C359.8 68.9514 348.8 68.9514 338.5 68.9514C338.5 67.7514 338.5 66.5514 338.5 64.6514C340.3 64.6514 342.8 64.6514 345.2 64.6514C347 64.6514 347.6 64.0514 347.6 62.2514C347.6 44.6514 347.6 26.9514 347.6 8.65137C347.6 6.85137 347 6.25136 345.2 6.25136C343.4 6.25136 340.9 6.25136 338.5 6.25136C338.5 5.05136 338.5 3.85136 338.5 1.95136C350.6 2.15136 360.9 2.15137 371.9 2.15137ZM71.9 35.0514C72.5 24.0514 74.9 14.9514 83.5 7.05137C96.3 -4.54863 125.5 -3.24863 132.8 21.6514C135.8 31.9514 135.8 42.3514 131 52.0514C125.5 64.2514 112.7 70.9514 98.7 69.0514C85.3 67.2514 75.6 58.0514 73.1 44.7514C72.5 41.7514 71.9 38.6514 71.9 35.0514ZM87.1 34.4514C87.1 38.1514 87.1 41.7514 87.7 45.4514C88.3 52.1514 90.1 57.6514 95 62.4514C99.9 67.3514 107.8 67.3514 112 62.4514C114.4 59.4514 116.9 55.7514 118.1 52.1514C120.5 43.6514 120.5 35.1514 119.3 26.5514C118.7 22.2514 118.1 18.0514 116.3 14.3514C113.9 8.85137 109.6 5.25136 102.9 5.25136C96.8 5.25136 92.6 8.95137 90.1 14.3514C86.5 19.8514 87.1 27.1514 87.1 34.4514ZM530.1 6.45136C530.1 4.65136 530.1 4.05137 530.1 2.15137C531.3 2.15137 532.5 2.15137 534.4 2.15137C539.3 2.15137 544.7 2.15137 549.6 2.15137C552 2.15137 553.9 2.75137 555.1 5.15137C564.8 18.5514 574.6 31.9514 584.3 45.3514C584.3 44.7514 584.3 45.3514 585.5 45.9514C585.5 44.7514 586.1 44.1514 586.1 43.5514C586.1 32.5514 586.1 21.0514 586.1 10.0514C586.1 7.65137 585.5 6.35137 583.1 6.35137C581.3 6.35137 579.5 6.35136 577 5.75136C577 4.55136 577 3.35136 577 1.45136C584.9 1.45136 592.2 1.45136 600.1 1.45136C600.1 2.65136 600.1 3.85136 600.1 5.75136C597.7 5.75136 596.5 6.35137 594.6 6.35137C592.2 6.35137 590.9 7.55137 590.9 10.6514C590.9 28.9514 590.9 47.1514 590.9 65.4514C590.9 66.6514 590.3 68.4514 589.1 68.4514C587.9 68.4514 586.7 67.8514 585.4 67.2514C584.8 67.2514 584.8 66.6514 584.8 66.0514C573.8 50.8514 562.9 35.6514 551.3 20.4514C549.5 17.4514 547 14.9514 544.6 11.3514C544.6 12.5514 544.6 13.7514 544.6 14.3514C544.6 29.5514 544.6 44.7514 544.6 59.9514C544.6 62.9514 545.2 64.2514 548.2 64.2514C548.8 64.2514 549.4 64.2514 550 64.2514C553.6 64.2514 553.6 64.2514 553.6 68.5514C545.7 68.5514 538.4 68.5514 530.5 68.5514C529.3 64.8514 529.3 64.2514 533.5 64.2514C539 63.6514 539 63.6514 539 58.1514C539 41.7514 539 25.2514 539 9.45136C539 7.05136 538.4 5.75136 536 6.45136C533.8 6.45136 531.9 6.45136 530.1 6.45136ZM251.4 183.451C254.4 183.451 256.3 183.451 258.7 183.451C260.5 183.451 260.5 184.651 260.5 185.851C260.5 187.051 260.5 188.251 258.7 188.251C249 188.251 239.8 188.251 230.1 188.251C228.3 188.251 228.3 187.651 228.3 185.851C228.3 184.651 228.3 183.451 230.1 183.451C232.5 183.451 234.4 183.451 237.4 183.451C237.4 182.251 237.4 181.051 237.4 180.451C237.4 163.451 237.4 146.351 237.4 129.351C237.4 126.951 236.8 125.651 234.4 125.651C233.2 125.651 232 125.651 230.7 125.651C228.9 125.651 228.3 125.051 228.3 123.251C228.3 121.451 228.9 120.851 230.7 120.851C242.3 120.851 253.8 120.851 265.4 120.851C272.7 120.851 280 123.251 283.7 129.951C290.4 140.951 284.3 154.251 271.5 156.751C266 157.951 259.9 157.951 254.5 157.951C252.1 157.951 251.5 158.551 251.5 160.951C251.4 168.851 251.4 175.551 251.4 183.451ZM250.8 139.651C250.8 143.951 250.8 147.551 250.8 151.851C250.8 153.051 250.8 154.251 252.6 154.251C256.3 154.251 259.9 154.251 263.6 153.651C268.5 153.051 270.9 150.651 270.9 145.751C270.9 141.451 270.9 137.251 270.9 132.951C270.3 128.051 268.5 125.651 263.6 125.051C259.9 124.451 256.9 125.051 253.3 124.451C251.5 124.451 250.9 125.051 250.9 126.851C250.8 131.751 250.8 136.051 250.8 139.651ZM357.9 126.251C354.2 126.851 350 126.851 346.9 128.051C343.9 128.651 342 131.051 341.4 134.151C340.8 136.551 340.2 139.651 340.2 142.051C339.6 145.751 339.6 145.751 335.3 145.051C335.3 143.251 335.3 142.051 335.3 140.151C335.9 134.651 336.5 129.151 336.5 123.751C336.5 122.551 336.5 121.351 338.3 121.351C356.6 121.351 374.2 121.351 392.5 121.351C392.5 121.351 393.1 121.351 393.7 121.951C394.3 129.251 394.9 137.151 395.5 144.451C391.2 145.651 391.2 145.651 390.6 141.451C390 139.651 389.4 137.751 389.4 135.351C388.2 129.851 384.5 126.851 379.1 126.851C376.7 126.851 374.8 126.851 372.4 126.851C372.4 145.751 372.4 164.551 372.4 183.451C376.7 183.451 380.9 183.451 385.2 183.451C385.2 185.251 385.2 186.451 385.2 187.751C371.8 187.751 359 187.751 345.6 187.751C345.6 186.551 345.6 185.351 345.6 183.451C349.9 183.451 354.1 183.451 358.4 183.451C357.9 164.651 357.9 145.751 357.9 126.251ZM483.3 68.5514C473 68.5514 463.2 68.5514 453.5 68.5514C452.3 64.2514 452.9 64.2514 456.5 64.2514C457.7 64.2514 458.9 64.2514 460.8 64.2514C459 59.9514 457.8 55.7514 456.5 52.0514C456.5 51.4514 455.3 51.4514 454.7 51.4514C448.6 51.4514 442.5 51.4514 436.4 51.4514C435.8 51.4514 434.6 52.0514 434.6 52.6514C433.4 56.3514 432.2 59.9514 430.9 63.6514C432.7 63.6514 433.9 64.2514 435.2 64.2514C438.9 64.2514 438.9 65.4514 438.2 68.5514C430.9 68.5514 424.2 68.5514 416.9 68.5514C416.3 64.2514 416.3 64.2514 419.9 64.2514C423.6 64.2514 425.4 63.0514 426.6 59.3514C432.7 41.0514 439.4 22.8514 446.1 3.95136C446.7 2.15136 447.3 0.251364 449.8 0.251364C452.2 0.251364 453.5 1.45136 454.1 3.95136C459 18.5514 464.4 33.1514 469.3 47.7514C471.1 52.6514 473 57.4514 474.2 62.3514C474.8 64.1514 476 64.7514 477.9 64.7514C478.5 64.7514 479.1 64.7514 479.7 64.7514C483.9 64.2514 483.9 64.2514 483.3 68.5514ZM455.3 45.9514C452.3 37.4514 449.2 29.5514 446.8 20.9514H446.2C443.2 28.8514 440.7 37.3514 437.7 45.2514C443.1 45.9514 448.6 45.9514 455.3 45.9514ZM190.6 183.451C193.6 183.451 196.1 183.451 198.5 183.451C196.7 179.151 195.5 174.951 194.2 171.251C194.2 170.651 193 170.051 192.4 170.051C186.3 170.051 180.2 170.051 174.1 170.051C173.5 170.051 172.3 170.651 171.7 171.251C170.5 174.951 169.3 177.951 168 182.251C170.4 182.851 172.9 182.851 175.3 183.451C175.3 184.651 175.3 185.851 175.3 187.751C168 187.751 161.3 187.751 154 187.751C152.8 183.451 152.8 183.451 157 183.451C161.9 183.451 161.9 183.451 163.7 178.551C170.4 160.251 176.5 142.051 183.2 123.151C183.8 121.351 184.4 119.451 187.5 119.451C190.5 119.451 191.2 121.251 191.8 123.151C198.5 142.051 205.2 161.451 211.9 180.351C212.5 182.751 213.7 183.351 216.2 183.351C217.4 183.351 218 183.351 219.2 183.351C221 183.351 221 184.551 221 185.751C221 186.951 220.4 188.151 219.2 188.151C210.7 188.151 201.6 188.151 193 188.151C189.3 187.751 191.2 185.351 190.6 183.451ZM174.1 165.251C180.2 165.251 186.3 165.251 192.4 165.251C189.4 156.751 186.3 148.851 183.9 140.251H183.3C180.2 148.851 177.2 156.751 174.1 165.251ZM430.9 187.751C430.9 186.551 430.9 185.351 430.9 183.451C433.3 183.451 435.8 183.451 438.8 183.451C437 179.151 435.8 175.551 434.5 171.251C434.5 170.651 433.3 170.051 432.1 170.051C426 170.051 420.5 170.051 414.5 170.051C413.9 170.051 412.7 170.651 412.1 171.851C410.9 174.851 409.7 178.551 408.4 182.851C410.8 183.451 413.3 183.451 415.7 184.051C415.7 185.251 415.7 186.451 415.7 188.351C408.4 188.351 401.1 188.351 394.4 188.351C393.2 184.651 393.2 184.051 397.4 184.051C402.3 184.051 402.3 184.051 404.1 179.151C410.8 160.851 416.9 142.651 423.6 124.351C424.2 122.551 424.8 120.651 427.9 120.651C430.9 120.651 431.6 122.451 432.2 124.351C438.9 143.251 445.6 162.651 452.3 181.551C452.9 183.351 454.1 184.551 456 183.951C456.6 183.951 457.8 183.951 458.4 183.951C460.2 183.951 461.4 183.951 461.4 186.351C461.4 188.751 460.2 188.751 458.4 188.751C449.9 188.751 441.4 188.751 433.4 188.751C432.8 187.751 432.2 187.751 430.9 187.751ZM424.3 140.851H423.7C420.7 148.751 418.2 157.251 415.2 165.151C421.3 165.151 427.4 165.151 433.5 165.151C429.7 156.751 426.7 148.851 424.3 140.851ZM233.1 35.0514C238.6 25.3514 243.4 16.7514 248.9 7.05137C246.5 6.45137 244.6 6.45137 242.2 5.85137C242.2 4.65137 242.2 3.45137 242.2 1.55137C249.5 1.55137 256.2 1.55137 263.5 1.55137C263.5 2.75137 263.5 3.95136 263.5 5.25136L262.9 5.85137C256.8 5.25137 253.8 8.25137 251.3 13.1514C247 22.2514 241.6 30.7514 236.7 39.3514C236.1 40.5514 235.5 41.7514 235.5 43.0514C235.5 49.1514 235.5 55.2514 235.5 61.3514C235.5 63.1514 236.1 63.7514 237.9 63.7514C239.1 63.7514 240.3 63.7514 240.9 63.7514C244.6 63.7514 244.6 63.7514 243.9 68.0514C233.6 68.0514 223.2 68.0514 212.9 68.0514C212.9 66.8514 212.9 65.6514 212.9 63.7514C215.3 63.7514 217.8 63.7514 219.6 63.7514C220.8 63.7514 222 63.1514 222 61.9514C222 55.8514 222 49.1514 222 43.0514C222 41.8514 221.4 41.2514 220.8 40.0514C214.7 29.0514 208.6 18.7514 202.5 8.45136C201.3 7.25136 199.5 6.65137 198.2 6.65137C196.4 6.05137 194.5 6.65137 192.7 6.65137C192.7 5.45137 192.7 4.25137 192.7 2.35137C203 2.35137 212.8 2.35137 223.1 2.35137C223.1 3.55137 223.1 4.75137 223.1 6.65137C220.7 6.65137 218.8 6.65136 215.8 7.25136C222.2 16.1514 227.1 25.3514 233.1 35.0514ZM330.5 13.7514C330.5 17.4514 330.5 21.0514 330.5 24.0514C330.5 25.8514 330.5 27.0514 328.1 27.0514C326.3 27.0514 325.1 26.4514 325.1 24.6514C324.5 18.5514 322.1 12.4514 316.6 8.85137C307.5 1.55137 292.3 6.45136 288 17.9514C286.8 22.8514 286.2 28.2514 286.2 33.1514C286.2 39.2514 286.8 45.9514 288.6 52.0514C291 61.1514 300.2 66.0514 309.9 65.4514C319 64.2514 325.7 56.9514 326.3 47.8514C326.3 46.0514 326.9 44.8514 329.3 44.8514C331.7 44.8514 331.1 46.6514 331.1 47.8514C330.5 57.5514 323.2 66.1514 312.8 69.1514C298.8 72.8514 282.4 66.1514 275.1 53.3514C267.8 39.9514 267.8 15.0514 287.9 4.65137C298.2 -0.848628 309.8 -2.04864 320.2 5.25136C320.8 5.85136 322 5.25136 322.6 5.25136C323.8 4.05136 325 2.85137 326.9 1.55137C327.5 1.55137 328.7 0.35136 329.3 0.95136C329.9 0.95136 330.5 2.75137 330.5 3.35137C330.5 7.05137 330.5 10.0514 330.5 13.7514ZM519.8 161.551C518.6 170.051 518 177.951 516.8 186.551C516.8 187.151 515 187.751 513.8 187.751C501.6 187.751 489.5 187.751 477.3 187.751C475.5 187.751 473.6 187.751 471.8 187.751C468.1 187.751 468.1 187.751 468.8 183.451C471.8 183.451 474.3 183.451 477.3 183.451C477.3 182.251 477.3 181.051 477.3 180.451C477.3 163.451 477.3 145.751 477.3 128.751C477.3 126.351 476.7 125.051 474.3 125.751C473.7 125.751 472.5 125.751 471.9 125.751C467.6 125.751 467.6 125.751 468.9 121.451C479.9 121.451 491.4 121.451 502.4 121.451C503.6 125.751 503 125.751 499.4 125.751C497 125.751 494.5 125.751 491.5 125.751C491.5 145.251 491.5 164.051 491.5 182.951C502.5 185.351 511 180.551 513.4 170.151C514 168.351 514 166.451 514.6 164.651C515.5 160.951 515.5 160.351 519.8 161.551ZM194.8 42.3514C193.6 50.8514 193 59.9514 191.8 68.5514C175.4 68.5514 159.5 68.5514 143.7 68.5514C143.7 67.3514 143.7 66.1514 143.7 64.2514C146.1 64.2514 148 64.2514 150.4 64.2514C152.2 64.2514 152.8 63.6514 152.8 61.8514C152.8 43.5514 152.8 25.3514 152.8 7.65137C152.8 7.05137 152.8 7.05136 152.8 6.45136C149.8 6.45136 147.3 6.45136 144.3 6.45136C144.3 4.65136 144.3 3.45137 144.3 2.15137C155.9 2.15137 167.4 2.15137 179 2.15137C179 3.35137 179 4.55136 179 6.45136C175.3 6.45136 171.7 6.45136 167.4 6.45136C167.4 7.65136 167.4 8.85136 167.4 9.45136C167.4 26.4514 167.4 44.1514 167.4 61.1514C167.4 63.5514 168 64.1514 170.4 64.1514C182.6 64.1514 188 59.2514 190.5 47.1514C190.5 46.5514 191.1 45.9514 191.1 45.3514C189.9 41.7514 191.8 41.7514 194.8 42.3514ZM294.6 125.651C294.6 123.851 294.6 122.651 294.6 121.351C305.6 121.351 316.5 121.351 327.5 121.351C327.5 122.551 327.5 123.751 327.5 125.651C325.1 125.651 322.6 125.651 320.2 125.651C319 125.651 317.8 126.251 317.8 127.451C317.8 145.751 317.8 163.951 317.8 182.251C317.8 182.851 317.8 182.851 318.4 183.451C321.4 183.451 324.5 183.451 327.5 183.451C327.5 185.251 327.5 186.451 327.5 187.751C316.5 187.751 305.6 187.751 294.6 187.751C294.6 186.551 294.6 185.351 294.6 183.451C297 183.451 299.5 183.451 301.9 183.451C303.7 183.451 303.7 182.851 303.7 181.651C303.7 164.051 303.7 145.751 303.7 128.051C303.7 126.251 303.1 125.651 301.3 125.651C299.5 125.651 297.1 125.651 294.6 125.651ZM490.6 6.45136C490.6 4.65136 490.6 3.45137 490.6 2.15137C491.8 2.15137 493 2.15137 493.6 2.15137C502.1 2.15137 511.2 2.15137 519.8 2.15137C523.4 1.55137 523.4 1.55136 523.4 6.45136C522.2 6.45136 520.4 6.45136 518.5 6.45136C517.3 6.45136 515.5 6.45136 513.6 6.45136C513.6 7.65136 513.6 8.85136 513.6 9.45136C513.6 26.4514 513.6 43.5514 513.6 61.1514C513.6 64.1514 514.2 64.8514 517.3 64.1514C517.9 64.1514 519.1 64.1514 519.7 64.1514C523.3 64.1514 523.3 64.1514 523.3 68.4514C512.3 68.4514 501.4 68.4514 490.4 68.4514C489.8 64.1514 489.8 64.1514 494.1 64.1514C500.2 64.1514 500.2 64.1514 500.2 58.0514C500.2 41.6514 500.2 25.1514 500.2 9.35137C500.2 6.95137 499.6 5.65137 497.2 6.35137C494.8 6.45137 492.4 6.45136 490.6 6.45136Z" fill="white"/>
</svg>
