<svg width="134" height="121" viewBox="0 0 134 121" fill="none" xmlns="http://www.w3.org/2000/svg">
<path d="M61.7773 15.8056V9.38889C61.7773 5.86043 64.6378 3 68.1662 3C71.6947 3 74.5551 5.86043 74.5551 9.38889V15.7778" stroke="white" stroke-width="5.11111" stroke-miterlimit="2" stroke-linecap="round" stroke-linejoin="round"/>
<path d="M96.1508 118H37.6261C25.6093 118 15.7773 108.168 15.7773 96.1513V37.6265C15.7773 25.6098 25.6093 15.7778 37.6261 15.7778H96.1508C108.168 15.7778 118 25.6098 118 37.6265V96.1513C118 108.168 108.168 118 96.1508 118Z" stroke="white" stroke-width="5.11111" stroke-miterlimit="2" stroke-linecap="round" stroke-linejoin="round"/>
<path d="M89.4665 56.2475C93.4661 56.2475 96.7085 53.0052 96.7085 49.0056C96.7085 45.006 93.4661 41.7637 89.4665 41.7637C85.4669 41.7637 82.2246 45.006 82.2246 49.0056C82.2246 53.0052 85.4669 56.2475 89.4665 56.2475Z" stroke="white" stroke-width="5.11111" stroke-miterlimit="2" stroke-linecap="round" stroke-linejoin="round"/>
<path d="M44.7429 56.2463C48.7425 56.2463 51.9848 53.004 51.9848 49.0044C51.9848 45.0048 48.7425 41.7625 44.7429 41.7625C40.7433 41.7625 37.501 45.0048 37.501 49.0044C37.501 53.004 40.7433 56.2463 44.7429 56.2463Z" stroke="white" stroke-width="5.11111" stroke-miterlimit="2" stroke-linecap="round" stroke-linejoin="round"/>
<path d="M88.611 96.2778H45.1666C39.5443 96.2778 34.9443 91.6778 34.9443 86.0555C34.9443 80.4333 39.5443 75.8333 45.1666 75.8333H88.611C94.2332 75.8333 98.8332 80.4333 98.8332 86.0555C98.8332 91.6778 94.2332 96.2778 88.611 96.2778Z" stroke="white" stroke-width="5.11111" stroke-miterlimit="2"/>
<path d="M9.38889 79.6667C5.86043 79.6667 3 76.8062 3 73.2778V52.8333C3 49.3049 5.86043 46.4445 9.38889 46.4445C12.9173 46.4445 15.7778 49.3049 15.7778 52.8333V73.2778C15.7778 76.8062 12.9173 79.6667 9.38889 79.6667Z" stroke="white" stroke-width="5.11111" stroke-miterlimit="2" stroke-linecap="round" stroke-linejoin="round"/>
<path d="M124.389 79.6667C127.917 79.6667 130.778 76.8062 130.778 73.2778V52.8333C130.778 49.3049 127.917 46.4445 124.389 46.4445C120.86 46.4445 118 49.3049 118 52.8333V73.2778C118 76.8062 120.86 79.6667 124.389 79.6667Z" stroke="white" stroke-width="5.11111" stroke-miterlimit="2" stroke-linecap="round" stroke-linejoin="round"/>
<path d="M46.4443 77.1111V95" stroke="white" stroke-width="5.11111" stroke-miterlimit="2" stroke-linecap="round" stroke-linejoin="round"/>
<path d="M59.2222 77.1111V95" stroke="white" stroke-width="5.11111" stroke-miterlimit="2" stroke-linecap="round" stroke-linejoin="round"/>
<path d="M72 77.1111V95" stroke="white" stroke-width="5.11111" stroke-miterlimit="2" stroke-linecap="round" stroke-linejoin="round"/>
<path d="M84.7773 77.1111V95" stroke="white" stroke-width="5.11111" stroke-miterlimit="2" stroke-linecap="round" stroke-linejoin="round"/>
</svg>
