<svg width="144" height="144" viewBox="0 0 144 144" fill="none" xmlns="http://www.w3.org/2000/svg">
<path d="M71.05 23.6799C44.99 23.6799 23.78 44.8999 23.78 70.9499C23.78 96.9999 45 118.22 71.05 118.22C97.1 118.22 118.32 96.9999 118.32 70.9499C118.32 44.8999 97.1 23.6799 71.05 23.6799ZM70.98 27.8799C71.7883 27.9009 72.5564 28.2377 73.1205 28.8187C73.6847 29.3997 74.0003 30.1788 74 30.9899C74 31.8148 73.6724 32.6058 73.0891 33.189C72.5059 33.7723 71.7149 34.0999 70.89 34.0999C70.0652 34.0999 69.2742 33.7723 68.6909 33.189C68.1077 32.6058 67.78 31.8148 67.78 30.9899C67.7799 30.5738 67.8632 30.1619 68.0251 29.7786C68.187 29.3953 68.4241 29.0484 68.7225 28.7584C69.0209 28.4684 69.3745 28.2412 69.7622 28.0903C70.15 27.9394 70.5641 27.8679 70.98 27.8799ZM78.1 32.9999C83.5597 34.0225 88.7313 36.2214 93.2557 39.4437C97.78 42.666 101.549 46.8346 104.3 51.6599L100.63 59.9399C100 61.3699 100.65 63.0499 102.07 63.6899L109.13 66.8199C109.349 69.0268 109.376 71.2485 109.21 73.4599H105.28C104.89 73.4599 104.73 73.7199 104.73 74.0999V75.8999C104.73 80.1399 102.34 81.0699 100.24 81.2999C98.24 81.5299 96.03 80.4599 95.75 79.2399C94.57 72.6099 92.61 71.1999 89.51 68.7499C93.36 66.3099 97.36 62.6999 97.36 57.8799C97.36 52.6699 93.79 49.3899 91.36 47.7799C87.94 45.5299 84.16 45.0799 83.14 45.0799H42.54C48.154 38.8083 55.6791 34.5625 63.95 32.9999L68.74 38.0199C69.82 39.1499 71.61 39.1999 72.74 38.1099L78.1 32.9999ZM33.9 56.0199C34.7092 56.0434 35.4773 56.3813 36.0412 56.962C36.6051 57.5428 36.9204 58.3205 36.92 59.1299C36.92 59.9548 36.5924 60.7458 36.0091 61.329C35.4259 61.9123 34.6349 62.2399 33.81 62.2399C32.9852 62.2399 32.1942 61.9123 31.6109 61.329C31.0277 60.7458 30.7 59.9548 30.7 59.1299C30.6999 58.7138 30.7832 58.3019 30.9451 57.9186C31.107 57.5353 31.3441 57.1884 31.6425 56.8984C31.9409 56.6084 32.2945 56.3812 32.6822 56.2303C33.07 56.0794 33.4841 56.0079 33.9 56.0199ZM108.05 56.1599C108.859 56.1834 109.627 56.5213 110.191 57.102C110.755 57.6828 111.07 58.4605 111.07 59.2699C111.07 60.0948 110.742 60.8858 110.159 61.469C109.576 62.0523 108.785 62.3799 107.96 62.3799C107.135 62.3799 106.344 62.0523 105.761 61.469C105.178 60.8858 104.85 60.0948 104.85 59.2699C104.85 58.8538 104.933 58.4419 105.095 58.0586C105.257 57.6753 105.494 57.3284 105.793 57.0384C106.091 56.7484 106.444 56.5212 106.832 56.3703C107.22 56.2194 107.634 56.1479 108.05 56.1599ZM39.76 56.6599H45.18V81.0999H34.24C32.8889 76.3554 32.4678 71.3943 33 66.4899L39.7 63.5099C41.13 62.8699 41.78 61.1999 41.14 59.7699L39.76 56.6599ZM62.38 56.9199H75.29C75.96 56.9199 80 57.6899 80 60.7199C80 63.2299 76.9 64.1299 74.35 64.1299H62.37L62.38 56.9199ZM62.38 74.4799H72.27C73.17 74.4799 77.1 74.7399 78.35 79.7599C78.74 81.2999 79.61 86.3199 80.2 87.9299C80.79 89.7299 83.18 93.3299 85.73 93.3299H101.87C100.788 94.7785 99.6054 96.1486 98.33 97.4299L91.76 96.0199C90.23 95.6899 88.72 96.6699 88.39 98.1999L86.83 105.48C81.8136 107.752 76.3658 108.915 70.8587 108.889C65.3515 108.864 59.9149 107.649 54.92 105.33L53.36 98.0499C53.03 96.5199 51.53 95.5399 50 95.8699L43.57 97.2499C42.3768 96.0191 41.2677 94.7095 40.25 93.3299H71.52C71.87 93.3299 72.11 93.2699 72.11 92.9399V81.8799C72.11 81.5599 71.87 81.4899 71.52 81.4899H62.37L62.38 74.4799ZM47.95 99.8099C48.7592 99.8334 49.5273 100.171 50.0912 100.752C50.6551 101.333 50.9704 102.11 50.97 102.92C50.97 103.745 50.6424 104.536 50.0591 105.119C49.4759 105.702 48.6849 106.03 47.86 106.03C47.0352 106.03 46.2442 105.702 45.6609 105.119C45.0777 104.536 44.75 103.745 44.75 102.92C44.7499 102.504 44.8332 102.092 44.9951 101.709C45.157 101.325 45.3941 100.978 45.6925 100.688C45.9909 100.398 46.3445 100.171 46.7322 100.02C47.12 99.8694 47.5341 99.7979 47.95 99.8099ZM94 99.9499C94.8092 99.9734 95.5773 100.311 96.1412 100.892C96.7051 101.473 97.0204 102.25 97.02 103.06C97.02 103.885 96.6924 104.676 96.1091 105.259C95.5259 105.842 94.7349 106.17 93.91 106.17C93.0852 106.17 92.2942 105.842 91.7109 105.259C91.1277 104.676 90.8 103.885 90.8 103.06C90.7999 102.644 90.8832 102.232 91.0451 101.849C91.207 101.465 91.4441 101.118 91.7425 100.828C92.0409 100.538 92.3945 100.311 92.7822 100.16C93.17 100.009 93.5841 99.9379 94 99.9499Z" fill="white"/>
<path fill-rule="evenodd" clip-rule="evenodd" d="M115.68 70.9499C115.68 82.7866 110.978 94.1384 102.608 102.508C94.2384 110.878 82.8866 115.58 71.05 115.58C59.2134 115.58 47.8616 110.878 39.4918 102.508C31.1221 94.1384 26.42 82.7866 26.42 70.9499C26.42 59.1133 31.1221 47.7615 39.4918 39.3918C47.8616 31.022 59.2134 26.32 71.05 26.32C82.8866 26.32 94.2384 31.022 102.608 39.3918C110.978 47.7615 115.68 59.1133 115.68 70.9499ZM114.84 66.6399L121.8 70.9499L114.84 75.26L120.82 80.8499L113.16 83.72L117.94 90.3699L109.85 91.69L113.25 99.1499L105.06 98.86L106.94 106.84L98.96 104.96L99.25 113.15L91.79 109.75L90.47 117.84L83.82 113.06L80.95 120.72L75.36 114.74L71.05 121.7L66.74 114.74L61.15 120.72L58.28 113.06L51.63 117.84L50.31 109.75L42.85 113.15L43.14 104.96L35.16 106.84L37.04 98.86L28.85 99.1499L32.25 91.69L24.16 90.3699L28.94 83.72L21.28 80.8499L27.26 75.26L20.3 70.9499L27.26 66.6399L21.28 61.0499L28.94 58.18L24.16 51.5299L32.25 50.2099L28.85 42.75L37.04 43.04L35.16 35.06L43.14 36.9399L42.85 28.75L50.31 32.15L51.63 24.0599L58.28 28.84L61.15 21.18L66.74 27.16L71.05 20.2L75.36 27.16L80.95 21.18L83.82 28.84L90.47 24.0599L91.79 32.15L99.25 28.75L98.96 36.9399L106.94 35.06L105.06 43.04L113.25 42.75L109.85 50.2099L117.94 51.5299L113.16 58.18L120.82 61.0499L114.84 66.6399Z" fill="white" stroke="white" stroke-width="3" stroke-linecap="round" stroke-linejoin="round"/>
</svg>
