<svg width="885" height="118" viewBox="0 0 885 118" fill="none" xmlns="http://www.w3.org/2000/svg">
<g clip-path="url(#clip0_38_2)">
<path d="M312.946 116.819L301.588 97.1526C306.898 86.9751 306.898 74.9784 306.898 59.1959C306.898 39.5292 306.898 24.7792 295.541 12.8317C291.627 8.56153 286.826 5.19991 281.475 2.983C276.124 0.766092 270.352 -0.25234 264.566 -0.000761587C258.795 -0.128105 253.061 0.947057 247.728 3.15633C242.395 5.36559 237.581 8.6606 233.591 12.8317C222.233 24.2384 222.233 38.6934 222.233 58.9992C222.233 79.3051 221.643 93.4159 233.591 105.314C237.55 109.548 242.358 112.899 247.701 115.148C253.045 117.338 258.795 118.36 264.566 118.147C267.795 118.099 271.009 117.704 274.153 116.967L312.946 116.819ZM249.717 91.4984C245.587 86.5817 244.407 81.2717 244.407 58.9992C244.407 36.7267 245.833 31.2692 249.717 26.5001C251.607 24.6139 253.845 23.1113 256.306 22.0751C258.746 21.0354 261.372 20.5002 264.025 20.5017C266.693 20.5056 269.334 21.0404 271.793 22.0751C274.239 23.1125 276.46 24.6153 278.332 26.5001C282.462 31.4167 283.642 36.7267 283.642 58.9992C283.642 81.2717 282.462 86.6801 278.332 91.4984C276.504 93.4376 274.294 94.9777 271.842 96.0217C269.355 97.0048 266.699 97.4892 264.025 97.4476C261.361 97.5009 258.715 96.9986 256.256 95.9726C253.796 94.9403 251.571 93.418 249.717 91.4984Z" fill="white"/>
<path d="M574.415 1.17896H596.392V116.819H574.415V1.17896Z" fill="white"/>
<path d="M41.7425 117.998C24.5833 117.998 11.4067 114.409 0 102.953L14.3075 88.4984C18.004 91.8687 22.3319 94.473 27.0409 96.1608C31.7499 97.8486 36.7467 98.5865 41.7425 98.3317C54.87 98.3317 61.9992 93.415 61.9992 83.8767C62.0669 82.1014 61.7829 80.3302 61.1633 78.6651C60.563 77.0148 59.6253 75.5077 58.41 74.2401C55.5654 71.796 52.0197 70.3157 48.2817 70.0117L34.4167 68.0942C26.1901 67.3942 18.4433 63.928 12.4392 58.2609C9.67797 55.1957 7.54038 51.6219 6.14583 47.7392C4.67807 43.7978 4.02573 39.5994 4.22833 35.3984C4.13 15.0434 19.0275 0.588379 44.25 0.588379C59.7375 0.588379 71.685 4.12838 81.2725 13.8142L66.8175 27.7284C63.7021 24.8453 60.0223 22.64 56.0108 21.2521C51.9994 19.8642 47.7435 19.3238 43.5125 19.665C31.565 19.665 25.665 26.3517 25.665 34.415C25.7596 37.5455 27.0225 40.5272 29.205 42.7734C32.2953 45.3371 36.0112 47.0338 39.9725 47.69L53.69 49.4601C61.8861 49.6817 69.712 52.9206 75.6675 58.5559C78.7182 61.865 81.0902 65.7404 82.6492 69.9625C84.1741 74.2324 84.8586 78.7569 84.665 83.2867C84.665 105.461 65.6375 118.146 41.6933 118.146" fill="white"/>
<path d="M116.771 116.819V1.17896H192.438V20.8456H139.338V48.1331H184.572V68.8323H139.387V97.2015H192.487V116.868H116.771" fill="white"/>
<path d="M382.566 117.999C359.261 117.999 340.233 101.774 340.233 77.0923V1.17896H362.997V76.404C362.997 89.679 370.815 97.4473 382.664 97.4473C394.513 97.4473 402.331 89.5315 402.331 76.404V1.17896H424.308V76.994C424.308 101.577 406.018 117.901 382.713 117.901" fill="white"/>
<path d="M530.312 105.314C526.394 109.576 521.591 112.928 516.24 115.136C510.889 117.345 505.119 118.355 499.337 118.098C493.573 118.255 487.842 117.198 482.514 114.996C477.186 112.793 472.381 109.495 468.411 105.314C457.25 93.8584 457.25 79.4034 457.25 58.9992C457.25 38.595 456.66 24.5825 468.657 12.6842C472.536 8.46107 477.293 5.13744 482.593 2.94621C487.892 0.754978 493.607 -0.250851 499.337 -0.000797926C505.097 -0.0815689 510.813 1.01003 516.138 3.20762C521.463 5.40521 526.285 8.66288 530.312 12.7825C541.669 24.2384 541.669 38.6934 541.669 59.0975C541.669 79.5017 541.669 93.4159 530.312 105.314ZM513.644 26.6475C511.774 24.7611 509.55 23.2637 507.098 22.2418C504.647 21.22 502.017 20.6938 499.361 20.6938C496.705 20.6938 494.076 21.22 491.624 22.2418C489.173 23.2637 486.948 24.7611 485.078 26.6475C480.899 31.5642 479.768 36.8742 479.768 59.1467C479.768 81.4192 480.899 86.8275 485.078 91.5967C486.941 93.4951 489.164 95.0031 491.616 96.0325C494.068 97.0619 496.701 97.5921 499.361 97.5921C502.021 97.5921 504.654 97.0619 507.106 96.0325C509.559 95.0031 511.781 93.4951 513.644 91.5967C517.774 86.68 518.954 81.4192 518.954 59.1467C518.954 36.8742 517.922 31.2692 513.644 26.5V26.6475Z" fill="white"/>
<path d="M702.002 116.819L695.463 96.3656H654.9L647.82 116.819H624.417L666.307 1.17896H683.417L725.159 116.819H702.002ZM675.108 34.8581L660.8 76.994H689.415L675.108 34.8581Z" fill="white"/>
<path d="M856.385 1.17896H885V30.089H856.385V1.17896Z" fill="white"/>
<path d="M784.847 91.9406V1.17896H770.54V106.543L784.847 91.9406Z" fill="white"/>
<path d="M794.878 102.364L780.57 116.819H885V102.364H794.878Z" fill="white"/>
<path d="M813.463 63.1781V1.17896H799.155V77.6331L813.463 63.1781Z" fill="white"/>
<path d="M823.493 73.4549L809.136 87.9099H885V73.4549H823.493Z" fill="white"/>
<path d="M842.029 34.4156V1.17896H827.721V48.7231L842.029 34.4156Z" fill="white"/>
<path d="M852.107 44.5431L837.849 58.9981H884.999V44.5431H852.107Z" fill="white"/>
</g>
<defs>
<clipPath id="clip0_38_2">
<rect width="885" height="118" fill="white"/>
</clipPath>
</defs>
</svg>
