<svg width="497" height="75" viewBox="0 0 497 75" fill="none" xmlns="http://www.w3.org/2000/svg">
<path d="M265.3 48.4C264.7 50.6 263.8 52.6 262.8 54.5C262.5 55.1 262.2 55.7 261.8 56.3C260.1 58.8 257 60.5 253.8 60.5C250.9 60.5 248.2 59.2 246.4 57.1C246.3 57 246.2 56.9 246.1 56.8C244.3 54.7 241.7 53.4 238.7 53.4C237.9 53.4 237.3 53.5 236.6 53.6V73.9C234.4 74.3 232.1 74.5 229.8 74.5C209.3 74.5 192.7 57.8 192.7 37.3C192.7 16.8 209.1 0 229.7 0C233.6 0 237.4 0.699997 240.9 1.7L229.9 12.8L236.6 19.5L260.2 43.1L261.2 44.1L265.3 48.4Z" fill="white"/>
<path d="M0 47.8001L3.5 46.1001C5.3 50.3001 9.6 52.6001 15 52.6001C20.8 52.6001 25.3 49.6001 25.3 44.4001C25.3 38.8001 20.2 37.7001 14.7 36.5001C8.3 35.1001 1.1 33.2001 1.1 24.8001C1.1 18.2001 7.3 13.1001 14.6 13.1001C20.7 13.1001 26.2 16.0001 28.4 21.6001L25 23.3001C23.1 19.2001 19.4 16.9001 14.4 16.9001C9.4 16.9001 5.1 20.2001 5.1 24.6001C5.1 30.2001 10.3 31.3001 15.9 32.5001C22.3 33.9001 29.4 35.8001 29.4 44.3001C29.2 51.8001 22.9 56.5001 14.9 56.5001C8.2 56.5001 2.3 53.5001 0 47.8001Z" fill="white"/>
<path d="M36.4004 56.1002V13.7002H40.4004V33.1002H65.5004V13.7002H69.5004V56.1002H65.5004V36.8002H40.4004V56.0002H36.4004V56.1002Z" fill="white"/>
<path d="M83.9004 13.7002V56.1002H79.9004V13.7002H83.9004Z" fill="white"/>
<path d="M91.1001 56.0999L97.2001 17.5999C97.7001 14.5999 99.9001 12.8999 102.6 12.8999C105 12.8999 107.1 14.0999 107.9 16.7999L117 48.9999C117.2 49.9999 117.4 50.2999 118 50.2999C118.5 50.2999 118.8 49.8999 119 48.9999L128.1 16.8999C128.9 14.1999 131 12.8999 133.4 12.8999C136 12.8999 138.2 14.4999 138.7 17.6999L144.2 55.7999H140.2L135 18.6999C134.8 17.2999 134.5 16.3999 133.3 16.3999C132.4 16.3999 131.8 17.1999 131.5 18.4999L122.1 50.7999C121.6 52.6999 119.9 53.7999 118.1 53.7999C116.4 53.7999 114.6 52.7999 114.1 50.8999L104.7 18.3999C104.3 17.0999 103.8 16.3999 103 16.3999C102.1 16.3999 101.4 17.1999 101.2 18.6999L95.5001 55.8999H91.4001V56.0999H91.1001Z" fill="white"/>
<path d="M159.1 18.1C160.2 14.6 162.7 13 165.9 13C169 13 171.6 14.6 172.7 18.1L184.6 56H180.5L176.9 44.2L155.1 44.3L151.3 56H147.2L159.1 18.1ZM156.1 40.5H175.7L169.2 19.4C168.7 17.7 167.6 16.8 166 16.8C164.3 16.8 163.3 17.7 162.8 19.4L156.1 40.5Z" fill="white"/>
<path d="M273.5 34.8C273.5 22.7 283 13 294.6 13C301.7 13 308 16.6 311.4 22.4L308.2 24.3C305.4 19.6 300.3 16.7 294.7 16.7C285.5 16.7 277.8 24.6 277.8 34.7C277.8 44.9 285.4 52.8 294.7 52.8C300.3 52.8 305.4 50 308.2 45.3L311.4 47.3C308 53.2 301.8 56.7 294.6 56.7C283 56.7 273.5 47.1 273.5 34.8Z" fill="white"/>
<path d="M323.5 18.1C324.6 14.6 327.1 13 330.3 13C333.5 13 336 14.6 337.1 18.1L349 56H344.9L341.3 44.2L319.5 44.3L315.7 56H311.6L323.5 18.1ZM320.4 40.5H340L333.5 19.4C333 17.7 331.9 16.8 330.3 16.8C328.6 16.8 327.6 17.7 327.1 19.4L320.4 40.5Z" fill="white"/>
<path d="M355 56.1002V13.7002H367.2C378 13.7002 385.4 18.5002 385.4 28.3002C385.4 38.5002 377.7 43.0002 367.3 43.0002H359V56.1002H355ZM359 17.5002V39.2002H367.2C375 39.2002 381.1 36.1002 381.1 28.3002C381.1 20.8002 375.4 17.5002 367.2 17.5002H359Z" fill="white"/>
<path d="M395 13.7002V56.1002H391V13.7002H395Z" fill="white"/>
<path d="M430.1 17.5002H416.6V56.1002H412.6V17.5002H399.2V13.7002H430.1V17.5002Z" fill="white"/>
<path d="M439.3 18.1C440.4 14.6 442.9 13 446.1 13C449.3 13 451.8 14.6 452.9 18.1L464.8 56H460.6L457 44.2L435.2 44.3L431.5 56.1H427.4L439.3 18.1ZM436.2 40.5H455.8L449.3 19.4C448.8 17.7 447.7 16.8 446.1 16.8C444.4 16.8 443.4 17.7 442.9 19.4L436.2 40.5Z" fill="white"/>
<path d="M474.8 52.3002H496.9V56.1002H474.8C471.8 56.1002 470.8 54.6002 470.8 52.1002V13.7002H474.8V52.3002Z" fill="white"/>
</svg>
