<svg width="680" height="68" viewBox="0 0 680 68" fill="none" xmlns="http://www.w3.org/2000/svg">
<path d="M631.388 66.3566V61.2736C633.113 61.212 634.437 60.9348 635.362 60.4419C636.286 59.8874 636.933 58.9632 637.302 57.6693C637.672 56.3139 637.857 54.4655 637.857 52.1242V15.2495C637.857 13.7092 637.888 12.2305 637.949 10.8134C638.073 9.39632 638.165 8.2873 638.227 7.48634C637.179 7.54795 635.978 7.60956 634.622 7.67117C633.267 7.67117 632.189 7.70198 631.388 7.7636V1.664H655.971V6.74699C654.307 6.8086 652.983 7.11666 651.997 7.67117C651.073 8.16407 650.426 9.05744 650.056 10.3513C649.686 11.6451 649.502 13.4935 649.502 15.8964V52.6788C649.502 54.3423 649.471 55.8826 649.409 57.2997C649.348 58.6551 649.255 59.7333 649.132 60.5343L663.179 60.4419C666.876 60.3803 669.741 59.1172 671.774 56.6527C673.808 54.1883 674.824 50.3683 674.824 45.1929H680L679.445 66.3566H631.388Z" fill="white"/>
<path d="M566.203 66.3562V61.0883C567.928 61.0883 569.315 60.5954 570.362 59.6096C571.409 58.6238 572.272 57.33 572.95 55.7281C573.627 54.0646 574.336 52.2162 575.075 50.183L593.466 0H598.457L618.512 51.1072C618.881 52.1546 619.374 53.6333 619.99 55.5432C620.607 57.4532 620.945 59.1168 621.007 60.5338C622.054 60.4722 623.071 60.4106 624.057 60.349C625.043 60.2874 625.905 60.2566 626.645 60.2566V66.3562H603.078V61.2732C604.988 61.2732 606.282 60.8727 606.959 60.0717C607.637 59.2708 607.914 58.2234 607.791 56.9295C607.73 55.6357 607.422 54.311 606.867 52.9555L604.557 46.6711L583.116 47.0408L581.082 53.2328C580.713 54.2802 580.281 55.4816 579.789 56.8371C579.296 58.131 578.803 59.3016 578.31 60.349C579.419 60.2874 580.62 60.2258 581.914 60.1642C583.27 60.1025 584.348 60.0717 585.149 60.0717V66.3562H566.203ZM585.149 41.126H602.523L597.533 27.5406C596.793 25.4458 596.085 23.351 595.407 21.2562C594.791 19.0997 594.267 17.1281 593.836 15.3414H593.651C593.282 16.5736 592.82 18.1756 592.265 20.1471C591.772 22.1187 591.064 24.3676 590.139 26.8937L585.149 41.126Z" fill="white"/>
<path d="M563.107 22.0884C563.107 18.6381 562.675 15.804 561.813 13.5859C560.95 11.3063 559.656 9.61195 557.931 8.50294C556.268 7.39392 554.142 6.87022 551.554 6.93183H545.917V52.5863C545.917 54.2499 545.886 55.7902 545.824 57.2072C545.763 58.6243 545.67 59.7333 545.547 60.5343C546.718 60.4727 548.042 60.4111 549.521 60.3495C551.061 60.2878 552.232 60.257 553.033 60.257V66.3566H527.803V61.2736C529.528 61.212 530.853 60.904 531.777 60.3495C532.701 59.795 533.348 58.8708 533.718 57.5769C534.087 56.2831 534.272 54.4655 534.272 52.1242L534.365 7.02425H528.357C524.722 7.08586 521.95 8.3181 520.04 10.721C518.13 13.1238 517.175 16.913 517.175 22.0884H512L512.462 1.664H567.82L568.375 22.0884H563.107Z" fill="white"/>
<path d="M505.521 6.74699C503.858 6.8086 502.533 7.11666 501.547 7.67117C500.623 8.16407 499.976 9.05744 499.606 10.3513C499.237 11.6451 499.052 13.4935 499.052 15.8964V52.5863C499.052 54.2499 499.021 55.7902 498.959 57.2072C498.898 58.6243 498.805 59.7333 498.682 60.5343C499.73 60.4727 500.931 60.4111 502.287 60.3495C503.642 60.2878 504.72 60.257 505.521 60.257V66.3566H480.938V61.2736C482.663 61.212 483.988 60.9348 484.912 60.4419C485.836 59.8874 486.483 58.9632 486.853 57.6693C487.222 56.3139 487.407 54.4655 487.407 52.1242V15.2495C487.407 13.7092 487.438 12.2305 487.5 10.8134C487.623 9.39632 487.715 8.2873 487.777 7.48634C486.73 7.54795 485.528 7.60956 484.173 7.67117C482.817 7.67117 481.739 7.70198 480.938 7.7636V1.664H505.521V6.74699Z" fill="white"/>
<path d="M423.447 61.2732C425.172 61.2116 426.497 60.9343 427.421 60.4414C428.345 59.8869 428.992 58.9628 429.362 57.6689C429.732 56.3134 429.917 54.4651 429.917 52.1238V15.249C429.917 13.7087 429.947 12.23 430.009 10.813C430.132 9.39588 430.225 8.28686 430.286 7.48591C429.239 7.54752 428.037 7.60913 426.682 7.67074C425.326 7.67074 424.248 7.70155 423.447 7.76316V1.66357C427.452 1.60196 431.488 1.57115 435.554 1.57115C439.62 1.57115 443.687 1.54034 447.753 1.47873C453.36 1.41712 458.196 2.12566 462.263 3.60435C466.329 5.02143 469.441 7.20865 471.597 10.166C473.753 13.0618 474.832 16.8201 474.832 21.441C474.832 23.9055 474.308 26.37 473.261 28.8345C472.275 31.2373 470.673 33.4862 468.455 35.581C466.298 37.6142 463.433 39.2777 459.86 40.5716C456.348 41.8654 452.097 42.574 447.106 42.6972C446.12 42.6972 445.166 42.6972 444.241 42.6972C443.317 42.6972 442.424 42.6664 441.561 42.6048V52.4935C441.561 54.2186 441.53 55.7897 441.469 57.2068C441.407 58.6239 441.315 59.7329 441.192 60.5339C441.992 60.4723 442.886 60.4414 443.872 60.4414C444.857 60.3798 445.843 60.349 446.829 60.349C447.876 60.2874 448.677 60.2566 449.232 60.2566V66.3562H423.447V61.2732ZM441.561 36.7824C442.362 36.844 443.132 36.9057 443.872 36.9673C444.611 37.0289 445.412 37.0597 446.275 37.0597C449.725 37.0597 452.621 36.4436 454.962 35.2113C457.365 33.9791 459.182 32.2231 460.414 29.9435C461.647 27.6022 462.263 24.7681 462.263 21.441C462.263 18.422 461.832 15.9576 460.969 14.0476C460.106 12.1376 458.967 10.6897 457.55 9.70394C456.132 8.65653 454.561 7.94799 452.836 7.57832C451.111 7.20865 449.386 7.02381 447.661 7.02381C446.059 7.02381 444.796 7.27027 443.872 7.76316C443.009 8.25606 442.393 9.14943 442.023 10.4433C441.715 11.6755 441.561 13.3699 441.561 15.5263V36.7824Z" fill="white"/>
<path d="M358.263 66.3562V61.0883C359.988 61.0883 361.374 60.5954 362.422 59.6096C363.469 58.6238 364.331 57.33 365.009 55.7281C365.687 54.0646 366.395 52.2162 367.135 50.183L385.526 0H390.517L410.571 51.1072C410.941 52.1546 411.434 53.6333 412.05 55.5432C412.666 57.4532 413.005 59.1168 413.067 60.5338C414.114 60.4722 415.131 60.4106 416.116 60.349C417.102 60.2874 417.965 60.2566 418.704 60.2566V66.3562H395.137V61.2732C397.047 61.2732 398.341 60.8727 399.019 60.0717C399.697 59.2708 399.974 58.2234 399.851 56.9295C399.789 55.6357 399.481 54.311 398.927 52.9555L396.616 46.6711L375.175 47.0408L373.142 53.2328C372.772 54.2802 372.341 55.4816 371.848 56.8371C371.355 58.131 370.862 59.3016 370.369 60.349C371.478 60.2874 372.68 60.2258 373.974 60.1642C375.329 60.1025 376.407 60.0717 377.208 60.0717V66.3562H358.263ZM377.208 41.126H394.583L389.592 27.5406C388.853 25.4458 388.145 23.351 387.467 21.2562C386.851 19.0997 386.327 17.1281 385.896 15.3414H385.711C385.341 16.5736 384.879 18.1756 384.325 20.1471C383.832 22.1187 383.123 24.3676 382.199 26.8937L377.208 41.126Z" fill="white"/>
<path d="M348.506 22.3655C347.767 17.0053 345.95 12.9389 343.054 10.1663C340.158 7.33217 336.4 5.9151 331.779 5.9151C328.513 5.9151 325.587 6.65444 322.999 8.13313C320.473 9.55021 318.317 11.5218 316.53 14.0479C314.805 16.5124 313.48 19.4081 312.556 22.7352C311.632 26.0006 311.17 29.5125 311.17 33.2708C311.17 38.7543 312.032 43.5909 313.757 47.7805C315.544 51.9701 318.009 55.2663 321.151 57.6692C324.355 60.0721 328.082 61.2735 332.333 61.2735C336.276 61.2735 340.158 60.3185 343.978 58.4085C347.86 56.437 351.063 53.6644 353.589 50.0909L357.379 53.5104C354.483 57.4536 351.402 60.4726 348.137 62.5674C344.871 64.6006 341.668 65.9868 338.525 66.7262C335.445 67.4655 332.641 67.8352 330.115 67.8352C325.371 67.8352 321.058 67.0034 317.177 65.3399C313.357 63.6148 310.03 61.2735 307.196 58.3161C304.423 55.2971 302.267 51.8161 300.726 47.8729C299.248 43.8681 298.508 39.5553 298.508 34.9344C298.508 30.6831 299.155 26.4935 300.449 22.3655C301.805 18.2375 303.807 14.51 306.456 11.1829C309.167 7.85588 312.556 5.20656 316.622 3.23498C320.689 1.20178 325.402 0.185181 330.762 0.185181C333.473 0.185181 336.307 0.616465 339.265 1.47903C342.222 2.27999 344.995 3.48143 347.582 5.08334L347.213 0.832104H353.589V22.3655H348.506Z" fill="white"/>
<path d="M249.46 43.5294C249.46 40.8801 249.06 39.0009 248.259 37.8919C247.519 36.7212 246.41 36.0127 244.932 35.7663C243.514 35.4582 241.789 35.335 239.756 35.3966L235.967 35.5814V52.6788C235.967 54.3423 235.936 55.8826 235.875 57.2997C235.813 58.6551 235.721 59.7333 235.597 60.5343L249.737 60.4419C251.894 60.4419 253.865 60.0414 255.652 59.2404C257.439 58.3779 258.887 56.9608 259.996 54.9892C261.105 52.956 261.659 50.2143 261.659 46.764H266.742L266.28 66.3566H217.853V61.2736C219.578 61.212 220.903 60.9348 221.827 60.4419C222.751 59.8874 223.398 58.9632 223.768 57.6693C224.137 56.3139 224.322 54.4655 224.322 52.1242V15.2495C224.322 13.7092 224.353 12.2305 224.415 10.8134C224.538 9.39632 224.63 8.2873 224.692 7.48634C223.645 7.54795 222.443 7.60956 221.088 7.67117C219.732 7.67117 218.654 7.70198 217.853 7.7636V1.664H263.415L263.97 19.0386H258.887C258.887 15.5267 258.301 12.9082 257.131 11.1831C256.022 9.39631 254.574 8.19488 252.787 7.57876C251 6.96264 249.152 6.68538 247.242 6.74699L242.436 6.83941C240.773 6.90103 239.479 7.17828 238.555 7.67117C237.63 8.16407 236.953 9.05744 236.521 10.3513C236.152 11.5835 235.967 13.4319 235.967 15.8964V30.0363L248.905 30.1288L248.443 22.0884H254.543V43.5294H249.46Z" fill="white"/>
<path d="M158.828 66.3564V61.2735C160.553 61.2118 161.878 60.9038 162.802 60.3493C163.726 59.7948 164.373 58.8706 164.743 57.5767C165.113 56.2213 165.297 54.3421 165.297 51.9392V15.4341C165.297 13.7706 165.328 12.2303 165.39 10.8132C165.513 9.39613 165.605 8.28711 165.667 7.48616C164.62 7.54777 163.418 7.60938 162.063 7.67099C160.707 7.67099 159.629 7.7018 158.828 7.76341V1.66382C162.771 1.6022 166.745 1.5714 170.75 1.5714C174.755 1.5714 178.79 1.54059 182.857 1.47898C190.127 1.41737 195.888 2.74203 200.139 5.45296C204.39 8.16389 206.393 12.3227 206.146 17.9294C206.085 19.7778 205.53 21.5953 204.483 23.3821C203.435 25.1688 201.895 26.7707 199.862 28.1878C197.829 29.6049 195.272 30.6831 192.191 31.4224V31.5148C198.537 32.1926 203.25 34.1025 206.331 37.2448C209.412 40.3254 210.952 43.9297 210.952 48.0577C210.952 52.0008 209.997 55.3279 208.087 58.0388C206.177 60.7498 203.528 62.8138 200.139 64.2308C196.812 65.6479 193.023 66.3564 188.772 66.3564H158.828ZM176.572 60.7189C177.62 60.7806 178.698 60.8114 179.807 60.8114C180.978 60.8114 182.087 60.8114 183.134 60.8114C184.181 60.7498 185.075 60.7189 185.814 60.7189C189.881 60.5957 192.961 59.4251 195.056 57.2071C197.212 54.9274 198.291 51.8776 198.291 48.0577C198.291 44.9155 197.644 42.451 196.35 40.6642C195.118 38.8775 193.485 37.6144 191.452 36.8751C189.48 36.1357 187.354 35.7661 185.075 35.7661C183.411 35.7661 181.963 35.7661 180.731 35.7661C179.499 35.7661 178.236 35.8277 176.942 35.9509V52.9558C176.942 54.6194 176.911 56.1288 176.85 57.4843C176.788 58.8398 176.696 59.918 176.572 60.7189ZM176.942 30.3134L182.395 30.221C185.29 30.1594 187.57 29.5433 189.234 28.3726C190.897 27.1404 192.099 25.5693 192.838 23.6593C193.577 21.6877 193.947 19.5621 193.947 17.2825C193.885 14.5715 193.269 12.4767 192.099 10.998C190.99 9.45774 189.603 8.37953 187.94 7.76341C186.276 7.14729 184.551 6.87003 182.764 6.93165C181.471 6.93165 180.392 7.11649 179.53 7.48616C178.667 7.85583 178.02 8.62597 177.589 9.7966C177.158 10.9672 176.942 12.7232 176.942 15.0644V30.3134Z" fill="white"/>
<path d="M149.207 6.74699C147.543 6.8086 146.219 7.11666 145.233 7.67117C144.309 8.16407 143.662 9.05744 143.292 10.3513C142.922 11.6451 142.737 13.4935 142.737 15.8964V52.5863C142.737 54.2499 142.707 55.7902 142.645 57.2072C142.583 58.6243 142.491 59.7333 142.368 60.5343C143.415 60.4727 144.617 60.4111 145.972 60.3495C147.328 60.2878 148.406 60.257 149.207 60.257V66.3566H124.624V61.2736C126.349 61.212 127.673 60.9348 128.598 60.4419C129.522 59.8874 130.169 58.9632 130.538 57.6693C130.908 56.3139 131.093 54.4655 131.093 52.1242V15.2495C131.093 13.7092 131.124 12.2305 131.185 10.8134C131.308 9.39632 131.401 8.2873 131.462 7.48634C130.415 7.54795 129.214 7.60956 127.858 7.67117C126.503 7.67117 125.424 7.70198 124.624 7.7636V1.664H149.207V6.74699Z" fill="white"/>
<path d="M62.981 66.3562V61.2732C64.7061 61.2116 66.0308 60.9344 66.9549 60.4415C67.8791 59.887 68.526 58.9628 68.8957 57.6689C69.2654 56.3135 69.4502 54.4651 69.4502 52.1238V15.249C69.4502 13.7087 69.481 12.2301 69.5426 10.813C69.6659 9.39591 69.7583 8.28689 69.8199 7.48593C68.7725 7.54754 67.5711 7.60915 66.2156 7.67076C64.8601 7.67076 63.7819 7.70157 62.981 7.76319V1.66359C67.0474 1.60198 71.1137 1.57118 75.1801 1.57118C79.3081 1.50957 83.4053 1.47876 87.4717 1.47876C93.0784 1.47876 97.8226 2.12569 101.704 3.41954C105.647 4.71339 108.605 6.74659 110.576 9.51913C112.609 12.2301 113.595 15.8036 113.534 20.2396C113.472 22.7657 112.887 25.2302 111.778 27.6331C110.669 30.0359 108.913 32.1615 106.51 34.0099C104.107 35.8583 100.903 37.3062 96.8984 38.3536C98.069 38.9697 99.178 39.8631 100.225 41.0337C101.334 42.2043 102.351 43.4982 103.275 44.9152L108.266 52.5859C109.498 54.4959 110.638 56.0978 111.685 57.3917C112.733 58.6239 113.811 59.5789 114.92 60.2566C116.029 60.8728 117.354 61.2116 118.894 61.2732V66.3562H104.846C103.552 65.3088 102.32 64.015 101.15 62.4747C100.041 60.9344 98.87 59.1476 97.6377 57.1144L90.9836 46.4863C90.1827 45.1925 89.4125 43.9911 88.6732 42.882C87.9954 41.7114 87.2253 40.7256 86.3627 39.9247C85.3769 39.9863 84.4836 40.0171 83.6826 40.0171C82.8816 40.0171 82.0191 39.9863 81.0949 39.9247V52.4935C81.0949 54.2187 81.0641 55.7898 81.0025 57.2068C80.9409 58.6239 80.8485 59.7329 80.7252 60.5339C81.403 60.4723 82.2039 60.4415 83.1281 60.4415C84.1139 60.3799 85.0689 60.3491 85.9931 60.3491C86.9172 60.2874 87.6566 60.2566 88.2111 60.2566V66.3562H62.981ZM85.9006 34.3796C89.3509 34.318 92.1851 33.7943 94.4031 32.8085C96.6827 31.8227 98.3771 30.2824 99.4861 28.1876C100.657 26.0928 101.242 23.4126 101.242 20.1472C101.242 17.3747 100.811 15.1258 99.9482 13.4007C99.1472 11.6755 98.0382 10.3509 96.6211 9.42671C95.2657 8.50253 93.7562 7.88641 92.0926 7.57835C90.4907 7.20868 88.8888 7.02384 87.2869 7.02384C85.685 7.02384 84.4219 7.27029 83.4978 7.76319C82.5736 8.25608 81.9267 9.14946 81.557 10.4433C81.2489 11.6755 81.0949 13.3699 81.0949 15.5263V34.1023C81.8342 34.1639 82.6044 34.2256 83.4053 34.2872C84.2063 34.3488 85.0381 34.3796 85.9006 34.3796Z" fill="white"/>
<path d="M51.1072 22.0884C51.1072 18.6381 50.6759 15.804 49.8133 13.5859C48.9508 11.3063 47.6569 9.61195 45.9318 8.50294C44.2682 7.39392 42.1426 6.87022 39.5549 6.93183H33.9174V52.5863C33.9174 54.2499 33.8866 55.7902 33.825 57.2072C33.7634 58.6243 33.671 59.7333 33.5477 60.5343C34.7184 60.4727 36.043 60.4111 37.5217 60.3495C39.062 60.2878 40.2327 60.257 41.0336 60.257V66.3566H15.8035V61.2736C17.5286 61.212 18.8533 60.904 19.7775 60.3495C20.7016 59.795 21.3486 58.8708 21.7182 57.5769C22.0879 56.2831 22.2727 54.4655 22.2727 52.1242L22.3652 7.02425H16.358C12.7229 7.08586 9.95034 8.3181 8.04037 10.721C6.1304 13.1238 5.17541 16.913 5.17541 22.0884H0L0.46209 1.664H55.8205L56.375 22.0884H51.1072Z" fill="white"/>
</svg>
